<?xml version="1.0" encoding="utf-8"?>
<!-- Generator: Adobe Illustrator 16.0.0, SVG Export Plug-In . SVG Version: 6.00 Build 0)  -->
<!DOCTYPE svg PUBLIC "-//W3C//DTD SVG 1.1//EN" "http://www.w3.org/Graphics/SVG/1.1/DTD/svg11.dtd">
<svg version="1.1" xmlns="http://www.w3.org/2000/svg" xmlns:xlink="http://www.w3.org/1999/xlink" x="0px" y="0px" width="55px"
	 height="55px" viewBox="0 0 55 55" enable-background="new 0 0 55 55" xml:space="preserve">
<g id="Capa_2">
	<rect width="55" height="55"/>
</g>
<g id="Capa_1">
	<g id="full" display="none">
		<polyline display="inline" fill="none" stroke="#FFFFFF" stroke-miterlimit="10" points="39.801,21.135 39.801,15.2 33.867,15.2 
					"/>
		<polyline display="inline" fill="none" stroke="#FFFFFF" stroke-miterlimit="10" points="33.865,39.801 39.8,39.801 39.8,33.867 
					"/>
		<polyline display="inline" fill="none" stroke="#FFFFFF" stroke-miterlimit="10" points="15.199,33.865 15.199,39.8 21.133,39.8 
					"/>
		<polyline display="inline" fill="none" stroke="#FFFFFF" stroke-miterlimit="10" points="21.135,15.199 15.2,15.199 15.2,21.133 
					"/>
	</g>
	<g id="no_full" display="none">
		<polyline display="inline" fill="none" stroke="#FFFFFF" stroke-miterlimit="10" points="42.768,18.167 36.833,18.167 
			36.832,12.233 		"/>
		<polyline display="inline" fill="none" stroke="#FFFFFF" stroke-miterlimit="10" points="36.833,42.768 36.833,36.833 
			42.767,36.832 		"/>
		<polyline display="inline" fill="none" stroke="#FFFFFF" stroke-miterlimit="10" points="12.232,36.833 18.167,36.833 
			18.168,42.767 		"/>
		<polyline display="inline" fill="none" stroke="#FFFFFF" stroke-miterlimit="10" points="18.167,12.232 18.167,18.167 
			12.233,18.168 		"/>
	</g>
	<g id="switch_camera_b" display="none">
		<g display="inline">
			<g>
				<path fill="none" stroke="#FFFFFF" stroke-miterlimit="10" d="M40.224,36.5c-2.823,3.983-7.47,6.583-12.724,6.583
					c-6.934,0-12.81-4.528-14.832-10.789"/>
				<g>
					<polygon fill="#FFFFFF" points="36.803,35.73 42.32,32.331 42.507,38.81 					"/>
				</g>
			</g>
		</g>
		<g display="inline">
			<g>
				<path fill="none" stroke="#FFFFFF" stroke-miterlimit="10" d="M14.798,18.471c2.824-3.967,7.46-6.554,12.702-6.554
					c6.913,0,12.774,4.501,14.813,10.732"/>
				<g>
					<polygon fill="#FFFFFF" points="18.218,19.248 12.692,22.635 12.521,16.156 					"/>
				</g>
			</g>
		</g>
	</g>
	<g id="switch_camera_A_1_" display="none">
		<g display="inline">
			<g>
				<path fill="none" stroke="#FFFFFF" stroke-miterlimit="10" d="M42.32,32.331c-2.033,6.241-7.9,10.752-14.82,10.752
					c-5.268,0-9.925-2.613-12.746-6.614"/>
				<g>
					<polygon fill="#FFFFFF" points="18.177,35.708 12.668,32.294 12.465,38.771 					"/>
				</g>
			</g>
		</g>
		<g display="inline">
			<g>
				<path fill="none" stroke="#FFFFFF" stroke-miterlimit="10" d="M12.692,22.635c2.043-6.224,7.9-10.718,14.808-10.718
					c5.246,0,9.888,2.592,12.711,6.566"/>
				<g>
					<polygon fill="#FFFFFF" points="36.791,19.257 42.313,22.649 42.491,16.171 					"/>
				</g>
			</g>
		</g>
	</g>
	<g id="take" display="none">
		
			<rect x="12.125" y="16.275" display="inline" fill="none" stroke="#FFFFFF" stroke-miterlimit="10" width="30.75" height="22.449"/>
		<circle display="inline" fill="none" stroke="#FFFFFF" stroke-miterlimit="10" cx="27.5" cy="27.5" r="4.875"/>
	</g>
	<g id="nocanvas" display="none">
		
			<rect x="12.125" y="16.275" display="inline" fill="none" stroke="#FFFFFF" stroke-miterlimit="10" width="30.75" height="22.449"/>
		<line display="inline" fill="none" stroke="#FFFFFF" stroke-miterlimit="10" x1="22.563" y1="22.563" x2="32.375" y2="32.375"/>
		<line display="inline" fill="none" stroke="#FFFFFF" stroke-miterlimit="10" x1="32.375" y1="22.75" x2="22.594" y2="32.531"/>
	</g>
	<g id="send">
		<rect x="12.125" y="16.275" fill="none" stroke="#FFFFFF" stroke-miterlimit="10" width="30.75" height="22.449"/>
		<line fill="none" stroke="#FFFFFF" stroke-miterlimit="10" x1="22.68" y1="22.68" x2="32.351" y2="22.68"/>
		<polyline fill="none" stroke="#FFFFFF" stroke-linejoin="bevel" stroke-miterlimit="10" points="22.68,27.494 27.507,22.667 
			32.318,27.479 		"/>
		
			<line fill="none" stroke="#FFFFFF" stroke-linejoin="bevel" stroke-miterlimit="10" x1="27.515" y1="32.351" x2="27.515" y2="22.667"/>
	</g>
</g>
<g id="Capa_3">
</g>
</svg>
