<?xml version="1.0" encoding="UTF-8" standalone="no"?>
<!-- Created with Inkscape (http://www.inkscape.org/) -->

<svg
   xmlns:dc="http://purl.org/dc/elements/1.1/"
   xmlns:cc="http://creativecommons.org/ns#"
   xmlns:rdf="http://www.w3.org/1999/02/22-rdf-syntax-ns#"
   xmlns:svg="http://www.w3.org/2000/svg"
   xmlns="http://www.w3.org/2000/svg"
   xmlns:sodipodi="http://sodipodi.sourceforge.net/DTD/sodipodi-0.dtd"
   xmlns:inkscape="http://www.inkscape.org/namespaces/inkscape"
   width="200"
   height="200"
   viewBox="0 0 52.916665 52.916668"
   version="1.1"
   id="svg8"
   inkscape:version="0.92.3 (2405546, 2018-03-11)"
   sodipodi:docname="espiral.svg">
  <defs
     id="defs2" />
  <sodipodi:namedview
     id="base"
     pagecolor="#ffffff"
     bordercolor="#666666"
     borderopacity="1.0"
     inkscape:pageopacity="0.0"
     inkscape:pageshadow="2"
     inkscape:zoom="1.979899"
     inkscape:cx="100.69304"
     inkscape:cy="99.805659"
     inkscape:document-units="mm"
     inkscape:current-layer="layer1"
     showgrid="false"
     units="px"
     inkscape:window-width="1082"
     inkscape:window-height="738"
     inkscape:window-x="1845"
     inkscape:window-y="139"
     inkscape:window-maximized="0" />
  <metadata
     id="metadata5">
    <rdf:RDF>
      <cc:Work
         rdf:about="">
        <dc:format>image/svg+xml</dc:format>
        <dc:type
           rdf:resource="http://purl.org/dc/dcmitype/StillImage" />
        <dc:title></dc:title>
      </cc:Work>
    </rdf:RDF>
  </metadata>
  <g
     inkscape:label="Capa 1"
     inkscape:groupmode="layer"
     id="layer1"
     transform="translate(0,-244.08332)">
    <path
       sodipodi:type="spiral"
       style="fill:none;fill-rule:evenodd;stroke:#000000;stroke-width:0.26458332"
       id="path4518"
       sodipodi:cx="18.441597"
       sodipodi:cy="264.3931"
       sodipodi:expansion="1"
       sodipodi:revolution="3"
       sodipodi:radius="21.121058"
       sodipodi:argument="-18.180744"
       sodipodi:t0="0"
       d="m 18.441597,264.3931 c 0.830829,0.65662 -0.475212,1.44389 -1.09135,1.38089 -1.669695,-0.17073 -2.175434,-2.22456 -1.670436,-3.56359 0.903323,-2.39522 3.904927,-3.01496 6.035836,-1.95998 3.127195,1.54822 3.876062,5.60689 2.249522,8.50808 -2.167922,3.86682 -7.316373,4.74616 -10.980322,2.53906 -4.6107053,-2.7774 -5.6208757,-9.02939 -2.828608,-13.45256 3.381811,-5.35705 10.744403,-6.49826 15.924808,-3.11815 6.104927,3.98333 7.377302,12.46065 3.407694,18.39705 -4.58307,6.85381 -14.177722,8.25746 -20.8692939,3.69723 -7.6033889,-5.18162 -9.13841062,-15.89537 -3.9867799,-23.34153 5.7793508,-8.35347 17.6134528,-10.01992 25.8137798,-4.27633 9.103917,6.37649 10.901857,19.33185 4.565866,28.28603"
       transform="matrix(1.3710322,0,0,1.5129055,-1.0774037,-126.69316)" />
  </g>
</svg>
