<?xml version="1.0" standalone="no"?>
<!DOCTYPE svg PUBLIC "-//W3C//DTD SVG 1.1//EN" "http://www.w3.org/Graphics/SVG/1.1/DTD/svg11.dtd" >
<svg xmlns="http://www.w3.org/2000/svg">
<metadata>Generated by IcoMoon</metadata>
<defs>
<font id="icomoon" horiz-adv-x="1024">
<font-face units-per-em="1024" ascent="960" descent="-64" />
<missing-glyph horiz-adv-x="1024" />
<glyph unicode="&#x20;" horiz-adv-x="512" d="" />
<glyph unicode="&#xe900;" glyph-name="hof" d="M887.467 123.733h-102.4v130.847h-204.8v415.287h-136.533v-233.243h-204.8v-312.89h-102.4v415.29h204.8v233.243h341.333v-415.287h204.8z" />
<glyph unicode="&#xe901;" glyph-name="info" d="M604.16 666.453c0-37.703-30.564-68.267-68.267-68.267s-68.267 30.564-68.267 68.267c0 37.703 30.564 68.267 68.267 68.267s68.267-30.564 68.267-68.267zM682.667 226.133h-341.333v102.4h143.36v136.533h-119.467v102.4h221.867v-238.933h95.573zM512 21.333c-235.264 0-426.667 191.403-426.667 426.667s191.403 426.667 426.667 426.667c235.264 0 426.667-191.403 426.667-426.667s-191.403-426.667-426.667-426.667zM512 772.267c-178.801 0-324.267-145.466-324.267-324.267s145.466-324.267 324.267-324.267c178.801 0 324.267 145.466 324.267 324.267s-145.466 324.267-324.267 324.267z" />
<glyph unicode="&#xe902;" glyph-name="login" d="M426.728 243.2c26.266-10.981 55.071-17.067 85.272-17.067 122.341 0 221.867 99.529 221.867 221.867s-99.526 221.867-221.867 221.867c-30.205 0-59.006-6.089-85.272-17.067h-166.127c59.464 72.902 149.985 119.467 251.399 119.467 179.087 0 324.267-145.179 324.267-324.267s-145.179-324.267-324.267-324.267c-101.41 0-191.935 46.565-251.395 119.467h166.124zM425.772 601.6h-144.435l101.417-101.949h-133.396c-11.964 10.329-27.511 16.616-44.558 16.616-37.704 0-68.267-30.563-68.267-68.267s30.563-68.267 68.267-68.267c17.527 0 33.457 6.659 45.548 17.517h135.417l-103.393-102.851h145.2l152.695 151.893-154.494 155.307z" />
<glyph unicode="&#xe903;" glyph-name="logout" d="M597.272 243.2c-26.266-10.981-55.071-17.067-85.272-17.067-122.337 0-221.867 99.529-221.867 221.867s99.529 221.867 221.867 221.867c30.205 0 59.006-6.089 85.272-17.067h166.127c-59.464 72.902-149.985 119.467-251.399 119.467-179.087 0-324.267-145.179-324.267-324.267s145.179-324.267 324.267-324.267c101.41 0 191.935 46.565 251.395 119.467h-166.124zM732.972 601.6h-144.435l101.417-101.949h-133.396c-11.964 10.329-27.511 16.616-44.558 16.616-37.704 0-68.267-30.563-68.267-68.267s30.563-68.267 68.267-68.267c17.527 0 33.457 6.659 45.548 17.517h135.417l-103.393-102.851h145.2l152.695 151.893-154.494 155.307z" />
<glyph unicode="&#xe904;" glyph-name="menu" d="M187.733 271.643h648.533v-64.853h-648.533v64.853zM187.733 683.52h648.533v-64.853h-648.533v64.853zM187.733 480.427h648.533v-64.853h-648.533v64.853z" />
<glyph unicode="&#xe905;" glyph-name="plus" d="M563.2 396.8h221.658v102.4h-221.658v221.74h-102.4v-221.74h-221.737v-102.4h221.737v-221.744h102.4z" />
<glyph unicode="&#xe906;" glyph-name="point" d="M512 516.267c37.642 0 68.267-30.628 68.267-68.267 0-37.642-30.624-68.267-68.267-68.267-37.639 0-68.267 30.624-68.267 68.267 0 37.639 30.628 68.267 68.267 68.267zM512 618.667c-94.256 0-170.667-76.411-170.667-170.667s76.411-170.667 170.667-170.667 170.667 76.411 170.667 170.667-76.411 170.667-170.667 170.667v0z" />
<glyph unicode="&#xe907;" glyph-name="ranking" d="M370.227 772.267h464.213v-92.16h-464.213v92.16zM370.224 586.81h464.213v-92.16h-464.213v92.16zM370.227 401.353h464.213v-92.16h-464.213v92.16zM370.227 215.893h464.213v-92.16h-464.213v92.16zM187.614 772.267h92.041v-92.16h-92.041v92.16zM187.614 586.81h92.041v-92.16h-92.041v92.16zM187.614 401.353h92.041v-92.16h-92.041v92.16zM187.614 215.893h92.041v-92.16h-92.041v92.16z" />
<glyph unicode="&#xe908;" glyph-name="settings" d="M887.467 396.8v102.397l-112.985 24.040c-5.751 20.101-13.715 39.257-23.671 57.173l62.887 96.877-72.407 72.407-96.881-62.884c-17.913 9.957-37.072 17.92-57.173 23.671l-24.037 112.985h-102.4l-24.037-112.985c-20.101-5.751-39.26-13.715-57.173-23.671l-96.884 62.887-72.404-72.404 62.884-96.881c-9.957-17.917-17.92-37.072-23.671-57.173l-112.981-24.044v-102.393l112.985-24.040c5.751-20.105 13.715-39.26 23.671-57.177l-62.884-96.881 72.404-72.404 96.881 62.884c17.917-9.953 37.072-17.917 57.173-23.671l24.040-112.981h102.393l24.040 112.985c20.105 5.755 39.26 13.718 57.177 23.671l96.881-62.884 72.404 72.404-62.884 96.881c9.953 17.913 17.917 37.072 23.671 57.173l112.981 24.037zM512 277.333c-94.106 0-170.667 76.561-170.667 170.667s76.561 170.667 170.667 170.667 170.667-76.561 170.667-170.667-76.561-170.667-170.667-170.667z" />
<glyph unicode="&#xe909;" glyph-name="shop" d="M820.832 192c0-37.703-30.564-68.267-68.267-68.267s-68.267 30.564-68.267 68.267c0 37.703 30.564 68.267 68.267 68.267s68.267-30.564 68.267-68.267zM387.27 192c0-37.703-30.564-68.267-68.267-68.267s-68.267 30.564-68.267 68.267c0 37.703 30.564 68.267 68.267 68.267s68.267-30.564 68.267-68.267zM752.565 267.493h-433.562c-28.276 0-51.2 22.924-51.2 51.2v301.097l-116.272 116.275c-19.995 19.995-19.995 52.412 0 72.407 19.992 19.995 52.412 19.995 72.407 0l116.275-116.272h496.053c15.848 0 30.802-7.339 40.499-19.876s13.039-28.856 9.056-44.196l-83.702-322.304c-5.864-22.572-26.235-38.332-49.555-38.332zM370.203 369.893h342.757l57.108 219.904h-399.865v-219.904z" />
<glyph unicode="&#xe90a;" glyph-name="team" d="M580.267 413.792c-21.477-28.474-34.133-63.993-34.133-102.325 0-46.479 18.702-88.655 48.94-119.467-30.239-30.805-48.94-72.987-48.94-119.467h102.4c0 37.646 30.628 68.267 68.267 68.267 37.642 0 68.267-30.621 68.267-68.267h102.4c0 46.479-18.698 88.661-48.94 119.467 30.242 30.812 48.94 72.987 48.94 119.467 0 94.106-76.561 170.667-170.667 170.667-15.879 0-31.242-2.225-45.841-6.304-8.475 21.647-21.214 41.178-37.233 57.504 30.242 30.805 48.94 72.987 48.94 119.467 0 94.106-76.561 170.667-170.667 170.667s-170.667-76.561-170.667-170.667c0-46.479 18.702-88.661 48.94-119.467-16.019-16.323-28.754-35.857-37.233-57.504-14.599 4.079-29.962 6.304-45.841 6.304-94.106 0-170.667-76.561-170.667-170.667 0-46.479 18.702-88.661 48.94-119.467-30.239-30.812-48.94-72.987-48.94-119.467h102.4c0 37.639 30.628 68.267 68.267 68.267 37.642 0 68.267-30.628 68.267-68.267h102.4c0 46.479-18.698 88.655-48.94 119.467 30.242 30.805 48.94 72.987 48.94 119.467 0 38.335-12.711 73.759-34.133 102.284v0.119c0 37.635 30.628 68.263 68.267 68.263 37.642 0 68.267-30.706 68.267-68.342v0zM307.2 243.2c-37.639 0-68.267 30.621-68.267 68.267 0 37.639 30.628 68.267 68.267 68.267 37.642 0 68.267-30.628 68.267-68.267 0-37.646-30.624-68.267-68.267-68.267zM512 584.533c-37.639 0-68.267 30.621-68.267 68.267 0 37.639 30.628 68.267 68.267 68.267 37.642 0 68.267-30.628 68.267-68.267 0-37.646-30.624-68.267-68.267-68.267zM716.8 243.2c-37.639 0-68.267 30.628-68.267 68.267s30.628 68.267 68.267 68.267c37.642 0 68.267-30.628 68.267-68.267s-30.624-68.267-68.267-68.267z" />
<glyph unicode="&#xe90b;" glyph-name="up" d="M770.976 362.667l-259.004 256.003-259.796-256.003z" />
<glyph unicode="&#xe90c;" glyph-name="upload" d="M511.973 618.67l-322.56-324.267-0.003-121.375h102.4v79.121l167.315 168.199 1.679-347.385h100.707v351.986l174.032-173.121v-78.8h102.4v121.375zM785.070 721.070v-273.067h102.4v375.467h-750.933v-375.467h102.4v273.067h546.133z" />
<glyph unicode="&#xe90d;" glyph-name="user" d="M836.267 123.733c0 122.812-68.632 229.902-169.557 284.921 41.383 40.322 67.157 96.601 67.157 158.812 0 122.337-99.529 221.867-221.867 221.867s-221.867-99.529-221.867-221.867c0-62.211 25.771-118.487 67.157-158.812-100.925-55.020-169.557-162.109-169.557-284.921l-0.444-51.2h102.844v51.2c0 122.337 99.529 221.867 221.867 221.867 122.262 0 221.747-99.632 221.867-221.867v-51.2h101.939l0.461 51.2zM392.533 567.467c0 65.874 53.593 119.467 119.467 119.467s119.467-53.593 119.467-119.467-53.593-119.467-119.467-119.467-119.467 53.593-119.467 119.467z" />
<glyph unicode="&#xe90e;" glyph-name="arrow-bottom" d="M512 72.533l322.56 324.267v121.375h-102.4v-79.121l-167.315-168.195-1.679 501.579-102.4-0.341 1.693-505.842-174.032 173.121v78.8h-102.4v-121.375z" />
<glyph unicode="&#xe90f;" glyph-name="arrow-left" d="M684.694 226.133h-79.121l-221.706 220.542 222.027 223.191h78.8v102.4h-121.375l-324.267-325.973 324.267-322.56h121.375v102.4z" />
<glyph unicode="&#xe910;" glyph-name="arrow-right" d="M339.425 123.733h121.375l324.267 322.56-324.267 325.973h-121.375v-102.4h78.8l222.024-223.191-221.706-220.542h-79.118v-102.4z" />
<glyph unicode="&#xe911;" glyph-name="arrow-top" d="M511.966 823.467l-322.56-324.267v-121.375h102.4v79.121l167.315 168.199 1.679-501.583 102.4 0.341-1.693 505.842 174.032-173.121v-78.8h102.4v121.375z" />
<glyph unicode="&#xe912;" glyph-name="audio-off" d="M730.911 594.5l104.851 104.851-72.407 72.407-32.444-32.444v85.043l-273.063-204.803h-44.995l-153.627 153.627-72.407-72.407 81.22-81.22h-23.2v-341.333h24.972l-83.398-83.398 72.407-72.407 155.805 155.805h43.216l273.067-204.8v83.265l32.075-32.075 72.407 72.407-104.482 104.482v293.001zM628.511 403.896l-44.104 44.104 44.104 44.104v-88.207zM519.287 537.634l39.762 29.826-47.049-47.053-6.721 6.721 14.008 10.506zM347.238 380.621v136.533h23.2l69.154-69.154-67.379-67.379h-24.975zM519.284 360.141l-12.991 9.742 5.707 5.711 39.963-39.963-32.679 24.511z" />
<glyph unicode="&#xe913;" glyph-name="audio-on" d="M628.511 619.554v-341.333l-136.533 102.4h-144.739v136.533h144.739l136.533 102.4zM730.911 824.358l-273.063-204.803h-213.009v-341.333h213.002l273.067-204.8v750.937h0.003z" />
<glyph unicode="&#xe914;" glyph-name="awards" d="M785.067 721.067h-51.2v102.4h-443.733v-102.4h-51.2c-56.552 0-102.4-45.848-102.4-102.4v-108.087c0-56.552 45.848-102.4 102.4-102.4h118.702c28.208-27.341 63.635-47.234 103.165-56.576v-125.471h-170.667v-102.4h443.733v102.4h-170.667v125.471c39.53 9.342 74.957 29.235 103.165 56.576h118.702c56.552 0 102.4 45.848 102.4 102.4v108.087c0 56.552-45.848 102.4-102.4 102.4zM238.933 510.58v108.087h51.2v-51.2c0-19.671 2.591-38.728 7.393-56.887h-58.593zM512 448c-65.874 0-119.467 53.593-119.467 119.467v153.6h238.933v-153.6c0-65.874-53.593-119.467-119.467-119.467zM785.067 510.58h-58.593c4.803 18.159 7.393 37.216 7.393 56.887v51.2h51.2v-108.087z" />
<glyph unicode="&#xe915;" glyph-name="blog" d="M836.267 430.933v238.933c0 56.552-45.848 102.4-102.4 102.4h-443.733c-56.552 0-102.4-45.848-102.4-102.4v-238.933h102.4v238.933h443.733v-238.933h102.4zM187.733 226.133h102.4v-102.4h-102.4v102.4zM187.733 379.733h102.4v-102.4h-102.4v102.4zM341.333 590.223h341.333v-102.4h-341.333v102.4zM341.333 448h341.333v-102.4h-341.333v102.4zM341.333 305.777h341.333v-102.4h-341.333v102.4zM341.333 163.553h341.333v-39.82h-341.333v39.82zM733.867 226.133h102.4v-102.4h-102.4v102.4zM733.867 379.733h102.4v-102.4h-102.4v102.4z" />
<glyph unicode="&#xe916;" glyph-name="button" d="M512 516.267c37.642 0 68.267-30.624 68.267-68.267s-30.624-68.267-68.267-68.267c-37.642 0-68.267 30.624-68.267 68.267s30.624 68.267 68.267 68.267zM512 618.667c-94.256 0-170.667-76.411-170.667-170.667s76.411-170.667 170.667-170.667 170.667 76.411 170.667 170.667-76.411 170.667-170.667 170.667v0zM512 721.067c150.569 0 273.067-122.498 273.067-273.067s-122.498-273.067-273.067-273.067-273.067 122.498-273.067 273.067 122.498 273.067 273.067 273.067zM512 823.467c-207.363 0-375.467-168.103-375.467-375.467s168.103-375.467 375.467-375.467c207.363 0 375.467 168.103 375.467 375.467s-168.103 375.467-375.467 375.467v0z" />
<glyph unicode="&#xe917;" glyph-name="camera" d="M512 448.57c37.956 0 68.837-30.88 68.837-68.837s-30.88-68.837-68.837-68.837-68.837 30.88-68.837 68.837 30.88 68.837 68.837 68.837zM512 550.97c-94.573 0-171.237-76.663-171.237-171.237 0-94.57 76.663-171.237 171.237-171.237 94.57 0 171.237 76.667 171.237 171.237 0 94.573-76.667 171.237-171.237 171.237v0zM785.067 516.267v-341.333h-546.703v341.333h102.97c56.552 0 102.4 45.848 102.4 102.4v51.2h136.533v-51.2c0-56.552 45.848-102.4 102.4-102.4h102.4zM682.667 618.667v51.2c0 56.552-45.848 102.4-102.4 102.4h-136.533c-56.552 0-102.4-45.848-102.4-102.4v-51.2h-102.97c-56.552 0-102.4-45.848-102.4-102.4v-341.333c0-56.552 45.848-102.4 102.4-102.4h546.703c56.552 0 102.4 45.848 102.4 102.4v341.333c0 56.552-45.848 102.4-102.4 102.4h-102.4z" />
<glyph unicode="&#xe918;" glyph-name="change-password" d="M716.8 823.467c-94.256 0-170.667-76.411-170.667-170.667 0-28.477 7.014-55.306 19.35-78.913l-102.12-102.12-91.802 91.798-72.407-72.41 91.802-91.795-71.953-71.953-91.802 91.798-72.407-72.407 164.205-164.202 318.887 318.891c23.607-12.339 50.432-19.354 78.913-19.354 94.256 0 170.667 76.411 170.667 170.667s-76.411 170.667-170.667 170.667zM716.8 584.533c-37.642 0-68.267 30.624-68.267 68.267s30.624 68.267 68.267 68.267 68.267-30.624 68.267-68.267-30.624-68.267-68.267-68.267z" />
<glyph unicode="&#xe919;" glyph-name="check" d="M407.869 155.197l-256.56 256.604c-19.992 19.995-19.988 52.412 0.003 72.407 19.999 19.992 52.415 19.988 72.407-0.003l184.156-184.183 392.41 392.373c19.992 19.992 52.408 19.995 72.41-0.003 19.992-19.995 19.988-52.412-0.003-72.407l-464.824-464.787z" />
<glyph unicode="&#xe91a;" glyph-name="close" d="M584.407 448l156.737 156.737-72.407 72.407-156.737-156.737-156.795 156.795-72.407-72.407 156.795-156.795-156.791-156.795 72.404-72.404 156.795 156.791 156.798-156.795 72.404 72.404z" />
<glyph unicode="&#xe91b;" glyph-name="concert" d="M765.399 718.493c-37.97 37.97-87.736 56.955-137.503 56.955-43.414 0-86.828-14.459-122.412-43.36-20.077 18.688-51.476 18.306-71.028-1.246-19.995-19.995-19.995-52.412 0-72.407l1.376-1.376c-24.323-38.574-33.778-83.808-28.361-127.58l-185.112-185.112c-46.578-46.578-46.578-122.371 0-168.95 23.289-23.289 53.883-34.935 84.477-34.935s61.184 11.646 84.477 34.935l185.146 185.143c7.95-0.983 15.94-1.526 23.941-1.526 36.024 0 72.021 10.001 103.571 29.894l1.922-1.922c9.998-9.998 23.101-14.998 36.202-14.998s26.208 5.001 36.202 14.998c19.736 19.732 19.954 51.555 0.727 71.605 62 76.367 57.463 188.791-13.623 259.881zM682.895 635.993c25.337-25.334 29.426-63.908 12.431-93.614l-106.066 106.066c11.643 6.69 24.846 10.325 38.636 10.325 20.777 0.003 40.311-8.086 54.999-22.777zM545.396 498.487c-4.639 4.639-8.482 9.766-11.704 15.159 7.226 12.879 8.441 28.184 3.656 41.899l65.143-65.143c-13.718 4.785-29.027 3.57-41.909-3.659-5.448 3.263-10.578 7.137-15.186 11.745zM294.769 247.822c-6.653 6.653-6.653 17.483 0 24.136l36.659 36.659 24.136-24.136-36.659-36.659c-6.656-6.653-17.48-6.653-24.136 0zM427.971 356.891l-24.136 24.136 47.568 47.568c3.628-4.321 7.431-8.544 11.493-12.605 4.076-4.076 8.315-7.892 12.646-11.527l-47.572-47.572z" />
<glyph unicode="&#xe91c;" glyph-name="copy" d="M785.067 823.467h-341.333c-56.552 0-102.4-45.848-102.4-102.4v-51.2h-102.4c-56.552 0-102.4-45.848-102.4-102.4v-392.533c0-56.552 45.848-102.4 102.4-102.4h341.333c56.552 0 102.4 45.848 102.4 102.4v51.2h102.4c56.552 0 102.4 45.848 102.4 102.4v392.533c0 56.552-45.848 102.4-102.4 102.4zM580.267 174.933h-341.333v392.533h102.4v-238.933c0-56.552 45.848-102.4 102.4-102.4h136.533v-51.2zM785.067 328.533h-341.333v392.533h341.333v-392.533z" />
<glyph unicode="&#xe91d;" glyph-name="cube" d="M836.239 618.667c0 0.396 0.024 0.785 0.014 1.184-0.416 18.070-10.332 34.58-26.088 43.441l-273.067 153.6c-15.531 8.742-34.505 8.765-50.070 0.072l-274.937-153.6c-15.828-8.844-25.798-25.395-26.214-43.52-0.010-0.396 0.010-0.785 0.010-1.178h-0.024v-341.333c0-18.5 9.981-35.56 26.105-44.626l273.155-153.6c7.793-4.383 16.442-6.574 25.095-6.574 8.608 0 17.213 2.171 24.979 6.506l274.845 153.6c16.193 9.045 26.225 26.146 26.225 44.694v341.333h-0.027zM511.915 713.571l172.838-97.222-172.844-108.029-174.022 108.025 174.029 97.225zM288.263 526.623l172.38-107.005-1.147-208.62-171.233 96.287v219.337zM561.9 211.272l1.147 208.258 170.82 106.759v-218.914l-171.967-96.102z" />
<glyph unicode="&#xe91e;" glyph-name="developer-options" d="M307.2 326.827c0 46.527-18.64 88.678-48.831 119.467 30.191 30.785 48.831 72.94 48.831 119.463v85.337c0 37.642 30.624 68.267 68.267 68.267v102.4c-94.256 0-170.667-76.411-170.667-170.667v-85.337c0-37.642-30.624-68.263-68.267-68.263v-102.4c37.642 0 68.267-30.621 68.267-68.267v-85.333c0-94.259 76.411-170.667 170.667-170.667v102.4c-37.642 0-68.267 30.621-68.267 68.267v85.333zM716.8 241.493c0-37.646-30.628-68.267-68.267-68.267v-102.4c94.256 0 170.667 76.407 170.667 170.667v85.333c0 37.646 30.624 68.267 68.267 68.267v102.4c-37.642 0-68.267 30.621-68.267 68.263v85.337c0 94.256-76.411 170.667-170.667 170.667v0-102.4c37.639 0 68.267-30.624 68.267-68.267v-85.337c0-46.524 18.64-88.678 48.831-119.463-30.191-30.788-48.831-72.94-48.831-119.467v-85.333z" />
<glyph unicode="&#xe91f;" glyph-name="down" d="M252.174 533.337l259.004-256.003 259.796 256.003z" />
<glyph unicode="&#xe920;" glyph-name="download" d="M512.034 277.76l322.56 324.267 0.003 121.375h-102.4v-79.121l-167.318-168.199-1.679 347.385h-100.707v-351.986l-174.032 173.121v78.8h-102.4v-121.375zM238.933 175.36v273.067h-102.4v-375.467h750.933v375.467h-102.4v-273.067h-546.133z" />
<glyph unicode="&#xe921;" glyph-name="face-happy" d="M667.136 376.999c-26.996-58.75-86.361-99.666-155.136-99.666-69.093 0-128.679 41.295-155.501 100.475l-93.181-42.564c42.929-94.532 138.093-160.311 248.682-160.311 110.408 0 205.442 65.563 248.474 159.843l-93.338 42.223zM443.733 567.467c0-28.277-22.923-51.2-51.2-51.2s-51.2 22.923-51.2 51.2c0 28.277 22.923 51.2 51.2 51.2s51.2-22.923 51.2-51.2zM682.667 567.467c0-28.277-22.923-51.2-51.2-51.2s-51.2 22.923-51.2 51.2c0 28.277 22.923 51.2 51.2 51.2s51.2-22.923 51.2-51.2z" />
<glyph unicode="&#xe922;" glyph-name="face-sad" d="M356.652 175.739c26.996 58.75 86.361 99.666 155.136 99.666 69.093 0 128.679-41.295 155.505-100.475l93.181 42.564c-42.929 94.529-138.093 160.311-248.682 160.311-110.408 0-205.442-65.563-248.474-159.843l93.334-42.223zM443.733 567.467c0-28.277-22.923-51.2-51.2-51.2s-51.2 22.923-51.2 51.2c0 28.277 22.923 51.2 51.2 51.2s51.2-22.923 51.2-51.2zM682.667 567.467c0-28.277-22.923-51.2-51.2-51.2s-51.2 22.923-51.2 51.2c0 28.277 22.923 51.2 51.2 51.2s51.2-22.923 51.2-51.2z" />
<glyph unicode="&#xe923;" glyph-name="general" d="M512 699.529l273.067-186.18v-338.415h-546.133v338.415l273.067 186.18zM512 823.467l-375.467-256v-494.933h750.933v494.933l-375.467 256z" />
<glyph unicode="&#xe924;" glyph-name="goal" d="M785.067 550.4c0 150.811-122.252 273.067-273.067 273.067-150.811 0-273.067-122.255-273.067-273.067 0-95.505 49.063-179.507 123.324-228.314l-73.731-175.821c27.467-20.374 57.815-37.079 90.317-49.411l78.019 186.047c17.814-3.649 36.253-5.567 55.139-5.567s37.328 1.922 55.132 5.571l78.019-186.047c32.498 12.329 62.85 29.037 90.32 49.411l-73.731 175.821c74.264 48.804 123.327 132.806 123.327 228.311zM341.333 550.4c0 94.106 76.561 170.667 170.667 170.667s170.667-76.561 170.667-170.667-76.561-170.667-170.667-170.667c-94.106 0-170.667 76.561-170.667 170.667zM563.2 550.4c0-28.277-22.923-51.2-51.2-51.2s-51.2 22.923-51.2 51.2c0 28.277 22.923 51.2 51.2 51.2s51.2-22.923 51.2-51.2z" />
<glyph unicode="&#xe925;" glyph-name="google-point" d="M341.333 4.267q0 307.2-136.533 341.333-136.533 170.667-34.133 307.2 170.667 170.667 341.333 0 102.4-136.533-34.133-307.2-136.533-34.133-136.533-341.333z" />
<glyph unicode="&#xe926;" glyph-name="google-point-trace" d="M512 721.067c65.874 0 119.467-53.593 119.467-119.467 0-12.165-1.836-24.163-5.461-35.724l-114.016-247.538-113.514 246.391c-3.946 12.083-5.943 24.467-5.943 36.871 0 65.874 53.593 119.467 119.467 119.467zM512 823.467c-122.337 0-221.867-99.529-221.867-221.867 0-25.481 4.448-50.753 13.216-75.11l208.65-452.891 209.333 454.475c8.318 23.675 12.534 48.411 12.534 73.527 0 122.337-99.529 221.867-221.867 221.867v0z" />
<glyph unicode="&#xe927;" glyph-name="incentives" d="M512 874.667c-235.264 0-426.667-191.403-426.667-426.667s191.403-426.667 426.667-426.667c235.264 0 426.667 191.403 426.667 426.667s-191.403 426.667-426.667 426.667zM187.733 448c0 11.527 0.618 22.914 1.795 34.133h51.606c-1.399-11.189-2.202-22.566-2.202-34.133 0-11.571 0.802-22.944 2.202-34.133h-51.606c-1.178 11.22-1.795 22.607-1.795 34.133zM512 123.733c-130.051 0-242.442 76.967-294.076 187.733h57.634c47.22-81.596 135.39-136.533 236.445-136.533 75.407 0 143.674 30.563 193.085 79.981l-72.462 72.462c-30.908-30.904-73.574-50.043-120.627-50.043-38.335 0-73.759 12.711-102.281 34.133h172.254v102.4h-237.206c-2.249 11.032-3.434 22.446-3.434 34.133s1.188 23.101 3.434 34.133h237.206v102.4h-172.254c28.522 21.422 63.945 34.133 102.281 34.133 47.428 0 90.382-19.459 121.341-50.797l72.895 72.011c-49.507 50.111-118.231 81.186-194.236 81.186-101.055 0-189.225-54.938-236.445-136.533h-57.631c51.63 110.766 164.024 187.733 294.076 187.733 178.801 0 324.267-145.466 324.267-324.267s-145.466-324.267-324.267-324.267z" />
<glyph unicode="&#xe928;" glyph-name="line-horizontal" d="M0 396.803l1024 1.666v100.734h-1024z" />
<glyph unicode="&#xe929;" glyph-name="line-vertical" d="M563.2-64l-1.666 1024h-100.734v-1024z" />
<glyph unicode="&#xe92a;" glyph-name="end-arrow-bottom" d="M512 72.533l322.56 324.267v121.375h-102.4v-79.121l-167.315-168.195-1.679 689.312-102.4-0.341 1.693-693.576-174.032 173.121v78.8h-102.4v-121.375z" />
</font>
</defs>
</svg>
