<?xml version="1.0" encoding="utf-8"?>
<!-- Generator: Adobe Illustrator 16.0.0, SVG Export Plug-In . SVG Version: 6.00 Build 0)  -->
<!DOCTYPE svg PUBLIC "-//W3C//DTD SVG 1.1//EN" "http://www.w3.org/Graphics/SVG/1.1/DTD/svg11.dtd">
<svg version="1.1" id="Capa_1" xmlns="http://www.w3.org/2000/svg" xmlns:xlink="http://www.w3.org/1999/xlink" x="0px" y="0px"
	 width="1900px" height="460px" viewBox="0 0 1900 460" enable-background="new 0 0 1900 460" xml:space="preserve">
<g>
	<defs>
		<circle id="SVGID_1_" cx="950" cy="230" r="230"/>
	</defs>
	<clipPath id="SVGID_2_">
		<use xlink:href="#SVGID_1_"  overflow="visible"/>
	</clipPath>
	<g clip-path="url(#SVGID_2_)">
		<g id="background">
			<circle fill="#FFFFFF" cx="950" cy="230" r="230"/>
		</g>
		<g id="halo">
			<circle fill="#027E8C" cx="950" cy="230" r="205.16"/>
		</g>
		<g id="body">
			<path fill="#F5BB92" d="M1095.454,407.078c-49.995-7.32-81.948-44.96-81.948-44.96c-15.766-21.337-12.843-93.699-12.843-93.699
				h-50.528H899.61c0,0,2.92,72.363-12.844,93.699c0,0-31.957,37.64-81.95,44.96c0,0-6.79,1.717,8.973,27.691
				c7.83,12.89,71.883,19.378,136.346,19.478c64.462-0.1,128.515-6.588,136.35-19.478
				C1102.246,408.795,1095.454,407.078,1095.454,407.078z"/>
			<path fill="#FAC69C" d="M1048.992,181.198c-5.901-1.729-10.629,2.463-13.127,4.711c0.049-0.788,0.098-1.583,0.142-2.389
				c1.493-57.364-19.771-117.5-86.587-118.63v-0.04c-0.331,0-0.64,0.017-0.967,0.02c-0.326-0.003-0.641-0.02-0.967-0.02v0.04
				c-67.166,1.135-87.661,60.99-85.924,118.637c-0.002,0.733,0.017,1.512,0.044,2.316c-2.513-2.238-7.219-6.381-13.056-4.646
				c-12.248,3.64-7.262,48.616,19.306,55.817c1.71,11.979,4.043,26.706,5.774,31.404c3.077,8.347,30.254,38.869,41.791,44.124
				c11.535,5.251,33.063,4.753,33.07,4.753c0.008,0,21.537,0.498,33.073-4.753c11.534-5.255,38.712-35.777,41.786-44.124
				c1.728-4.686,4.053-19.333,5.761-31.292l0.045,0.048C1056.232,230.481,1059.715,184.336,1048.992,181.198z"/>
			<path fill="#E9A170" d="M948.635,273.453l-27.113-0.657c0,0,6.661,12.385,27.113,12.385c20.451,0,27.115-12.385,27.115-12.385
				L948.635,273.453z"/>
			<path fill="#DD9666" d="M975.75,272.796c0,0-5.442-0.47-10.041-2.626c-4.597-2.159-8.255-3.565-10.882-3.19
				c-2.453,0.349-4.415,1.426-6.192,1.566c-1.776-0.142-3.738-1.218-6.191-1.566c-2.627-0.375-6.287,1.03-10.884,3.19
				c-4.596,2.156-10.038,2.626-10.038,2.626c9.347,2.659,24.564,2.025,27.113,1.896C951.182,274.822,966.4,275.455,975.75,272.796z"
				/>
		</g>
		<path fill="#494A4A" d="M1112.118,458.89c0-12.451,1.26-24.24,1.26-35.707c0-16.48-9.889-25.814-24.722-34.056
			c-14.831-8.239-76.947-29.836-76.947-29.836c0,49.796-62.1,55.07-62.1,55.07s-62.098-5.274-62.098-55.07
			c0,0-62.11,21.597-76.94,29.835c-14.836,8.242-24.721,17.576-24.721,34.057c0,11.466,1.259,25.579,1.259,35.706L1112.118,458.89
			L1112.118,458.89z"/>
		<path fill="#131515" d="M1011.718,359.291c-2.399,50.733-62.104,55.07-62.104,55.07s-59.704-4.337-62.103-55.07l-16.723,5.927
			c0,0,6.443,66.148,78.825,66.148s78.826-66.148,78.826-66.148L1011.718,359.291z"/>
		<path fill="#542D1E" d="M1112.37,458.856c0-12.451,1.263-24.239,1.263-35.706c0-16.48-9.89-25.813-24.721-34.055
			c-14.834-8.238-76.947-29.837-76.947-29.837c0,49.797-62.101,55.071-62.101,55.071s-62.099-5.274-62.099-55.072
			c0,0-62.113,21.599-76.94,29.837c-14.836,8.242-24.723,17.575-24.723,34.055c0,11.467,1.26,25.581,1.26,35.707H1112.37
			L1112.37,458.856z"/>
		<g>
			<defs>
				<circle id="SVGID_3_" cx="950" cy="230" r="230"/>
			</defs>
			<defs>
				<circle id="SVGID_4_" cx="950" cy="230" r="230"/>
			</defs>
			<defs>
				<circle id="SVGID_5_" cx="950" cy="230" r="230"/>
			</defs>
			<defs>
				<circle id="SVGID_6_" cx="950" cy="230" r="230"/>
			</defs>
			<defs>
				<circle id="SVGID_7_" cx="950" cy="230" r="230"/>
			</defs>
			<defs>
				<circle id="SVGID_8_" cx="950" cy="230" r="230"/>
			</defs>
			<defs>
				<circle id="SVGID_9_" cx="950" cy="230" r="230"/>
			</defs>
			<defs>
				<circle id="SVGID_10_" cx="950" cy="230" r="230"/>
			</defs>
			<defs>
				<circle id="SVGID_11_" cx="950" cy="230" r="230"/>
			</defs>
			<defs>
				<circle id="SVGID_12_" cx="950" cy="230" r="230"/>
			</defs>
			<defs>
				<circle id="SVGID_13_" cx="950" cy="230" r="230"/>
			</defs>
			<defs>
				<circle id="SVGID_14_" cx="950" cy="230" r="230"/>
			</defs>
			<defs>
				<circle id="SVGID_15_" cx="950" cy="230" r="230"/>
			</defs>
			<defs>
				<circle id="SVGID_16_" cx="950" cy="230" r="230"/>
			</defs>
			<defs>
				<circle id="SVGID_17_" cx="950" cy="230" r="230"/>
			</defs>
			<defs>
				<circle id="SVGID_18_" cx="950" cy="230" r="230"/>
			</defs>
			<defs>
				<circle id="SVGID_19_" cx="950" cy="230" r="230"/>
			</defs>
			<defs>
				<circle id="SVGID_20_" cx="950" cy="230" r="230"/>
			</defs>
			<clipPath id="SVGID_21_">
				<use xlink:href="#SVGID_3_"  overflow="visible"/>
			</clipPath>
			<clipPath id="SVGID_22_" clip-path="url(#SVGID_21_)">
				<use xlink:href="#SVGID_4_"  overflow="visible"/>
			</clipPath>
			<clipPath id="SVGID_23_" clip-path="url(#SVGID_22_)">
				<use xlink:href="#SVGID_5_"  overflow="visible"/>
			</clipPath>
			<clipPath id="SVGID_24_" clip-path="url(#SVGID_23_)">
				<use xlink:href="#SVGID_6_"  overflow="visible"/>
			</clipPath>
			<clipPath id="SVGID_25_" clip-path="url(#SVGID_24_)">
				<use xlink:href="#SVGID_7_"  overflow="visible"/>
			</clipPath>
			<clipPath id="SVGID_26_" clip-path="url(#SVGID_25_)">
				<use xlink:href="#SVGID_8_"  overflow="visible"/>
			</clipPath>
			<clipPath id="SVGID_27_" clip-path="url(#SVGID_26_)">
				<use xlink:href="#SVGID_9_"  overflow="visible"/>
			</clipPath>
			<clipPath id="SVGID_28_" clip-path="url(#SVGID_27_)">
				<use xlink:href="#SVGID_10_"  overflow="visible"/>
			</clipPath>
			<clipPath id="SVGID_29_" clip-path="url(#SVGID_28_)">
				<use xlink:href="#SVGID_11_"  overflow="visible"/>
			</clipPath>
			<clipPath id="SVGID_30_" clip-path="url(#SVGID_29_)">
				<use xlink:href="#SVGID_12_"  overflow="visible"/>
			</clipPath>
			<clipPath id="SVGID_31_" clip-path="url(#SVGID_30_)">
				<use xlink:href="#SVGID_13_"  overflow="visible"/>
			</clipPath>
			<clipPath id="SVGID_32_" clip-path="url(#SVGID_31_)">
				<use xlink:href="#SVGID_14_"  overflow="visible"/>
			</clipPath>
			<clipPath id="SVGID_33_" clip-path="url(#SVGID_32_)">
				<use xlink:href="#SVGID_15_"  overflow="visible"/>
			</clipPath>
			<clipPath id="SVGID_34_" clip-path="url(#SVGID_33_)">
				<use xlink:href="#SVGID_16_"  overflow="visible"/>
			</clipPath>
			<clipPath id="SVGID_35_" clip-path="url(#SVGID_34_)">
				<use xlink:href="#SVGID_17_"  overflow="visible"/>
			</clipPath>
			<clipPath id="SVGID_36_" clip-path="url(#SVGID_35_)">
				<use xlink:href="#SVGID_18_"  overflow="visible"/>
			</clipPath>
			<clipPath id="SVGID_37_" clip-path="url(#SVGID_36_)">
				<use xlink:href="#SVGID_19_"  overflow="visible"/>
			</clipPath>
			<clipPath id="SVGID_38_" clip-path="url(#SVGID_37_)">
				<use xlink:href="#SVGID_20_"  overflow="visible"/>
			</clipPath>
			<polygon clip-path="url(#SVGID_38_)" fill="#784738" points="862.837,392.903 862.665,392.622 860.587,389.018 857.218,389.018 
				854.868,392.573 854.769,392.723 834.535,423.125 834.535,435.999 858.656,399.213 881.05,435.999 881.05,423.15 			"/>
			<polygon clip-path="url(#SVGID_38_)" fill="#784738" points="816.318,392.903 816.151,392.622 814.069,389.018 810.705,389.018 
				808.35,392.573 808.254,392.723 788.017,423.125 788.017,435.999 812.142,399.213 834.535,435.999 834.535,423.15 			"/>
			<polygon clip-path="url(#SVGID_38_)" fill="#784738" points="769.803,392.903 769.633,392.622 767.554,389.018 764.186,389.018 
				761.833,392.573 761.736,392.723 741.5,423.125 741.5,435.999 765.626,399.213 788.017,435.999 788.017,423.15 			"/>
			<polygon clip-path="url(#SVGID_38_)" fill="#784738" points="1002.384,392.903 1002.216,392.622 1000.136,389.018 
				996.768,389.018 994.419,392.573 994.318,392.723 974.082,423.125 974.082,435.999 998.207,399.213 1020.6,435.999 
				1020.6,423.15 			"/>
			<polygon clip-path="url(#SVGID_38_)" fill="#784738" points="955.871,392.903 955.701,392.622 953.62,389.018 950.252,389.018 
				947.9,392.573 947.802,392.723 927.566,423.125 927.566,435.999 951.691,399.213 974.082,435.999 974.082,423.15 			"/>
			<polygon clip-path="url(#SVGID_38_)" fill="#784738" points="909.351,392.903 909.183,392.622 907.103,389.018 903.735,389.018 
				901.385,392.573 901.286,392.723 881.05,423.125 881.05,435.999 905.176,399.213 927.566,435.999 927.566,423.15 			"/>
			<polygon clip-path="url(#SVGID_38_)" fill="#784738" points="1141.933,392.903 1141.765,392.622 1139.685,389.018 
				1136.317,389.018 1133.968,392.573 1133.868,392.723 1113.633,423.125 1113.633,435.999 1137.758,399.213 1160.151,435.999 
				1160.151,423.15 			"/>
			<polygon clip-path="url(#SVGID_38_)" fill="#784738" points="1095.419,392.903 1095.251,392.622 1093.17,389.018 
				1089.802,389.018 1087.451,392.573 1087.353,392.723 1067.119,423.125 1067.119,435.999 1091.24,399.213 1113.633,435.999 
				1113.633,423.15 			"/>
			<polygon clip-path="url(#SVGID_38_)" fill="#784738" points="1048.9,392.903 1048.733,392.622 1046.65,389.018 1043.286,389.018 
				1040.934,392.573 1040.835,392.723 1020.6,423.125 1020.6,435.999 1044.724,399.213 1067.119,435.999 1067.119,423.15 			"/>
			<polygon clip-path="url(#SVGID_38_)" fill="#784738" points="862.837,421.924 862.665,421.643 860.587,418.036 857.218,418.036 
				854.868,421.594 854.769,421.742 834.535,452.144 834.535,465.018 858.656,428.234 881.05,465.018 881.05,452.171 			"/>
			<polygon clip-path="url(#SVGID_38_)" fill="#784738" points="816.318,421.924 816.151,421.643 814.069,418.036 810.705,418.036 
				808.35,421.594 808.254,421.742 788.017,452.144 788.017,465.018 812.142,428.234 834.535,465.018 834.535,452.171 			"/>
			<polygon clip-path="url(#SVGID_38_)" fill="#784738" points="769.803,421.924 769.633,421.643 767.554,418.036 764.186,418.036 
				761.833,421.594 761.736,421.742 741.5,452.144 741.5,465.018 765.626,428.234 788.017,465.018 788.017,452.171 			"/>
			<polygon clip-path="url(#SVGID_38_)" fill="#784738" points="1002.384,421.924 1002.216,421.643 1000.136,418.036 
				996.768,418.036 994.419,421.594 994.318,421.742 974.082,452.144 974.082,465.018 998.207,428.234 1020.6,465.018 
				1020.6,452.171 			"/>
			<polygon clip-path="url(#SVGID_38_)" fill="#784738" points="955.871,421.924 955.701,421.643 953.62,418.036 950.252,418.036 
				947.9,421.594 947.802,421.742 927.566,452.144 927.566,465.018 951.691,428.234 974.082,465.018 974.082,452.171 			"/>
			<polygon clip-path="url(#SVGID_38_)" fill="#784738" points="909.351,421.924 909.183,421.643 907.103,418.036 903.735,418.036 
				901.385,421.594 901.286,421.742 881.05,452.144 881.05,465.018 905.176,428.234 927.566,465.018 927.566,452.171 			"/>
			<polygon clip-path="url(#SVGID_38_)" fill="#784738" points="1141.933,421.924 1141.765,421.643 1139.685,418.036 
				1136.317,418.036 1133.968,421.594 1133.868,421.742 1113.633,452.144 1113.633,465.018 1137.758,428.234 1160.151,465.018 
				1160.151,452.171 			"/>
			<polygon clip-path="url(#SVGID_38_)" fill="#784738" points="1095.419,421.924 1095.251,421.643 1093.17,418.036 
				1089.802,418.036 1087.451,421.594 1087.353,421.742 1067.119,452.144 1067.119,465.018 1091.24,428.234 1113.633,465.018 
				1113.633,452.171 			"/>
			<polygon clip-path="url(#SVGID_38_)" fill="#784738" points="1048.9,421.924 1048.733,421.643 1046.65,418.036 1043.286,418.036 
				1040.934,421.594 1040.835,421.742 1020.6,452.144 1020.6,465.018 1044.724,428.234 1067.119,465.018 1067.119,452.171 			"/>
		</g>
		<path fill="#23110D" d="M1011.972,359.257c-2.397,50.734-62.104,55.072-62.104,55.072s-59.704-4.338-62.103-55.072l-16.726,5.93
			c0,0,6.444,66.146,78.828,66.146c72.382,0,78.825-66.146,78.825-66.146L1011.972,359.257z"/>
		<path fill="#D8D8D7" d="M1111.794,458.379c0-12.452,1.26-24.24,1.26-35.705c0-16.479-9.889-25.814-24.72-34.058
			c-14.832-8.236-75.21-29.836-75.21-29.836c0,49.798-63.837,49.068-63.837,49.068s-61.994,0.729-61.994-49.068
			c0,0-62.216,21.6-77.046,29.836c-14.835,8.243-24.721,17.579-24.721,34.058c0,11.465,1.26,25.579,1.26,35.705H1111.794z"/>
		<polygon fill="#F4F3ED" points="887.293,358.78 872.4,399.258 899.992,451.871 947.57,407.723 		"/>
		<polygon fill="#F4F3ED" points="1013.124,358.78 1026.181,399.258 998.594,451.871 951.023,407.723 		"/>
		<path fill="#F4F3ED" d="M806.029,391.094c-12.452,7.679-20.503,16.723-20.503,31.579c0,11.466,1.26,25.579,1.26,35.706h43.847
			C822.062,425.174,808.607,396.449,806.029,391.094z"/>
		<path fill="#F4F3ED" d="M1092.552,391.094c12.453,7.679,20.501,16.723,20.501,31.579c0,11.466-1.259,25.579-1.259,35.706h-43.845
			C1076.52,425.174,1089.975,396.449,1092.552,391.094z"/>
		<polygon fill="#F4F3ED" points="935.33,419.354 947.853,407.735 950.733,407.735 963.252,419.354 963.252,458.379 935.33,458.379 
					"/>
		<path fill="#D1CFC9" d="M952.195,430.74c0,2.093-1.651,3.79-3.689,3.79c-2.036,0-3.688-1.697-3.688-3.79
			c0-2.09,1.652-3.787,3.688-3.787C950.544,426.952,952.195,428.65,952.195,430.74z"/>
		<path fill="#542D1E" d="M1113.262,458.244c0-12.453,1.262-24.239,1.262-35.708c0-16.479-9.89-25.814-24.72-34.055
			c-14.834-8.239-76.949-29.839-76.949-29.839c0,33.12-62.1,36.294-62.1,36.294s-65.296-3.174-65.296-34.64
			c0,0-58.913,19.945-73.743,28.185c-14.835,8.24-24.721,17.575-24.721,34.055c0,11.469,1.259,25.58,1.259,35.708H1113.262
			L1113.262,458.244z"/>
		<path fill="#422116" d="M950.756,394.937c0,0,59.578-3.072,61.984-34.344c-0.054-0.184-0.09-0.296-0.09-0.296
			s3.839-62.856-14.273-54.31c0,0-23.291,22.611-49.32,22.611c-26.027,0-49.316-22.611-49.316-22.611
			c-18.117-8.547-14.279,54.31-14.279,54.31C885.46,391.762,950.756,394.937,950.756,394.937z"/>
		<g>
			<defs>
				<path id="SVGID_39_" d="M950.756,394.937c0,0,59.578-3.072,61.984-34.344c-0.054-0.184-0.09-0.296-0.09-0.296
					s3.839-62.856-14.273-54.31c0,0-23.291,22.611-49.32,22.611c-26.027,0-49.316-22.611-49.316-22.611
					c-18.117-8.547-14.279,54.31-14.279,54.31C885.46,391.762,950.756,394.937,950.756,394.937z"/>
			</defs>
			<defs>
				<path id="SVGID_40_" d="M950.756,394.937c0,0,59.578-3.072,61.984-34.344c-0.054-0.184-0.09-0.296-0.09-0.296
					s3.839-62.856-14.273-54.31c0,0-23.291,22.611-49.32,22.611c-26.027,0-49.316-22.611-49.316-22.611
					c-18.117-8.547-14.279,54.31-14.279,54.31C885.46,391.762,950.756,394.937,950.756,394.937z"/>
			</defs>
			<defs>
				<path id="SVGID_41_" d="M950.756,394.937c0,0,59.578-3.072,61.984-34.344c-0.054-0.184-0.09-0.296-0.09-0.296
					s3.839-62.856-14.273-54.31c0,0-23.291,22.611-49.32,22.611c-26.027,0-49.316-22.611-49.316-22.611
					c-18.117-8.547-14.279,54.31-14.279,54.31C885.46,391.762,950.756,394.937,950.756,394.937z"/>
			</defs>
			<defs>
				<path id="SVGID_42_" d="M950.756,394.937c0,0,59.578-3.072,61.984-34.344c-0.054-0.184-0.09-0.296-0.09-0.296
					s3.839-62.856-14.273-54.31c0,0-23.291,22.611-49.32,22.611c-26.027,0-49.316-22.611-49.316-22.611
					c-18.117-8.547-14.279,54.31-14.279,54.31C885.46,391.762,950.756,394.937,950.756,394.937z"/>
			</defs>
			<defs>
				<path id="SVGID_43_" d="M950.756,394.937c0,0,59.578-3.072,61.984-34.344c-0.054-0.184-0.09-0.296-0.09-0.296
					s3.839-62.856-14.273-54.31c0,0-23.291,22.611-49.32,22.611c-26.027,0-49.316-22.611-49.316-22.611
					c-18.117-8.547-14.279,54.31-14.279,54.31C885.46,391.762,950.756,394.937,950.756,394.937z"/>
			</defs>
			<defs>
				<path id="SVGID_44_" d="M950.756,394.937c0,0,59.578-3.072,61.984-34.344c-0.054-0.184-0.09-0.296-0.09-0.296
					s3.839-62.856-14.273-54.31c0,0-23.291,22.611-49.32,22.611c-26.027,0-49.316-22.611-49.316-22.611
					c-18.117-8.547-14.279,54.31-14.279,54.31C885.46,391.762,950.756,394.937,950.756,394.937z"/>
			</defs>
			<defs>
				<path id="SVGID_45_" d="M950.756,394.937c0,0,59.578-3.072,61.984-34.344c-0.054-0.184-0.09-0.296-0.09-0.296
					s3.839-62.856-14.273-54.31c0,0-23.291,22.611-49.32,22.611c-26.027,0-49.316-22.611-49.316-22.611
					c-18.117-8.547-14.279,54.31-14.279,54.31C885.46,391.762,950.756,394.937,950.756,394.937z"/>
			</defs>
			<clipPath id="SVGID_46_">
				<use xlink:href="#SVGID_39_"  overflow="visible"/>
			</clipPath>
			<clipPath id="SVGID_47_" clip-path="url(#SVGID_46_)">
				<use xlink:href="#SVGID_40_"  overflow="visible"/>
			</clipPath>
			<clipPath id="SVGID_48_" clip-path="url(#SVGID_47_)">
				<use xlink:href="#SVGID_41_"  overflow="visible"/>
			</clipPath>
			<clipPath id="SVGID_49_" clip-path="url(#SVGID_48_)">
				<use xlink:href="#SVGID_42_"  overflow="visible"/>
			</clipPath>
			<clipPath id="SVGID_50_" clip-path="url(#SVGID_49_)">
				<use xlink:href="#SVGID_43_"  overflow="visible"/>
			</clipPath>
			<clipPath id="SVGID_51_" clip-path="url(#SVGID_50_)">
				<use xlink:href="#SVGID_44_"  overflow="visible"/>
			</clipPath>
			<clipPath id="SVGID_52_" clip-path="url(#SVGID_51_)">
				<use xlink:href="#SVGID_45_"  overflow="visible"/>
			</clipPath>
			<path clip-path="url(#SVGID_52_)" fill="#542D1E" d="M890.81,379.278c-1.395-39.273,0.458-53.462,2.67-62.944
				c1.946-8.354,8.624-10.334,11.908-10.21l-0.124,3.413l0.062-1.709l-0.055,1.709c-0.279-0.054-6.688-0.066-8.469,7.575
				c-2.157,9.251-3.962,23.167-2.582,62.046L890.81,379.278z"/>
			<path clip-path="url(#SVGID_52_)" fill="#542D1E" d="M907.881,389.522c-1.395-39.277,0.458-53.465,2.671-62.944
				c1.948-8.354,8.624-10.334,11.908-10.21l-0.126,3.406l0.062-1.704l-0.05,1.707c-0.283-0.053-6.688-0.063-8.471,7.58
				c-2.156,9.248-3.963,23.165-2.582,62.044L907.881,389.522z"/>
			<path clip-path="url(#SVGID_52_)" fill="#542D1E" d="M926.66,396.347c-1.397-39.272,0.457-53.46,2.667-62.939
				c1.952-8.357,8.626-10.336,11.91-10.216l-0.129,3.414l0.066-1.707l-0.056,1.707c-0.277-0.054-6.686-0.064-8.466,7.578
				c-2.159,9.246-3.963,23.167-2.586,62.047L926.66,396.347z"/>
			<path clip-path="url(#SVGID_52_)" fill="#542D1E" d="M1007.329,379.278c1.396-39.273-0.458-53.462-2.669-62.944
				c-1.949-8.354-8.623-10.334-11.908-10.21l0.125,3.413l-0.064-1.709l0.053,1.709c0.28-0.054,6.689-0.066,8.469,7.575
				c2.157,9.251,3.966,23.167,2.583,62.046L1007.329,379.278z"/>
			<path clip-path="url(#SVGID_52_)" fill="#542D1E" d="M990.26,389.522c1.396-39.277-0.461-53.465-2.669-62.944
				c-1.952-8.354-8.626-10.334-11.912-10.21l0.129,3.406l-0.063-1.704l0.054,1.707c0.278-0.053,6.685-0.063,8.467,7.58
				c2.156,9.248,3.965,23.165,2.58,62.044L990.26,389.522z"/>
			<path clip-path="url(#SVGID_52_)" fill="#542D1E" d="M971.48,396.347c1.395-39.272-0.459-53.46-2.67-62.939
				c-1.947-8.357-8.624-10.336-11.908-10.216l0.125,3.414l-0.061-1.707l0.052,1.707c0.279-0.054,6.686-0.064,8.47,7.578
				c2.155,9.246,3.96,23.167,2.581,62.047L971.48,396.347z"/>
			<rect x="947.347" y="323.185" clip-path="url(#SVGID_52_)" fill="#542D1E" width="3.414" height="78.532"/>
		</g>
		<path fill="#ED8F21" d="M1113.083,458.577c0-12.449,1.263-24.238,1.263-35.705c0-16.48-9.891-25.813-24.722-34.058
			c-14.833-8.237-76.947-29.839-76.947-29.839c-14.324,24.545-62.101,24.348-62.101,24.348s-47.77,0.197-62.098-24.348
			c0,0-62.113,21.602-76.94,29.839c-14.836,8.244-24.723,17.577-24.723,34.058c0,11.467,1.259,25.58,1.259,35.705H1113.083z"/>
		<g id="dress-e">
			<g>
				<defs>
					<path id="SVGID_53_" d="M1113.083,458.577c0-12.449,1.263-24.238,1.263-35.705c0-16.48-9.891-25.813-24.722-34.058
						c-14.833-8.237-76.947-29.839-76.947-29.839c-14.324,24.545-62.101,24.348-62.101,24.348s-47.77,0.197-62.098-24.348
						c0,0-62.113,21.602-76.94,29.839c-14.836,8.244-24.723,17.577-24.723,34.058c0,11.467,1.259,25.58,1.259,35.705H1113.083z"/>
				</defs>
				<defs>
					<path id="SVGID_54_" d="M1113.083,458.577c0-12.449,1.263-24.238,1.263-35.705c0-16.48-9.891-25.813-24.722-34.058
						c-14.833-8.237-76.947-29.839-76.947-29.839c-14.324,24.545-62.101,24.348-62.101,24.348s-47.77,0.197-62.098-24.348
						c0,0-62.113,21.602-76.94,29.839c-14.836,8.244-24.723,17.577-24.723,34.058c0,11.467,1.259,25.58,1.259,35.705H1113.083z"/>
				</defs>
				<defs>
					<path id="SVGID_55_" d="M1113.083,458.577c0-12.449,1.263-24.238,1.263-35.705c0-16.48-9.891-25.813-24.722-34.058
						c-14.833-8.237-76.947-29.839-76.947-29.839c-14.324,24.545-62.101,24.348-62.101,24.348s-47.77,0.197-62.098-24.348
						c0,0-62.113,21.602-76.94,29.839c-14.836,8.244-24.723,17.577-24.723,34.058c0,11.467,1.259,25.58,1.259,35.705H1113.083z"/>
				</defs>
				<defs>
					<path id="SVGID_56_" d="M1113.083,458.577c0-12.449,1.263-24.238,1.263-35.705c0-16.48-9.891-25.813-24.722-34.058
						c-14.833-8.237-76.947-29.839-76.947-29.839c-14.324,24.545-62.101,24.348-62.101,24.348s-47.77,0.197-62.098-24.348
						c0,0-62.113,21.602-76.94,29.839c-14.836,8.244-24.723,17.577-24.723,34.058c0,11.467,1.259,25.58,1.259,35.705H1113.083z"/>
				</defs>
				<defs>
					<path id="SVGID_57_" d="M1113.083,458.577c0-12.449,1.263-24.238,1.263-35.705c0-16.48-9.891-25.813-24.722-34.058
						c-14.833-8.237-76.947-29.839-76.947-29.839c-14.324,24.545-62.101,24.348-62.101,24.348s-47.77,0.197-62.098-24.348
						c0,0-62.113,21.602-76.94,29.839c-14.836,8.244-24.723,17.577-24.723,34.058c0,11.467,1.259,25.58,1.259,35.705H1113.083z"/>
				</defs>
				<defs>
					<path id="SVGID_58_" d="M1113.083,458.577c0-12.449,1.263-24.238,1.263-35.705c0-16.48-9.891-25.813-24.722-34.058
						c-14.833-8.237-76.947-29.839-76.947-29.839c-14.324,24.545-62.101,24.348-62.101,24.348s-47.77,0.197-62.098-24.348
						c0,0-62.113,21.602-76.94,29.839c-14.836,8.244-24.723,17.577-24.723,34.058c0,11.467,1.259,25.58,1.259,35.705H1113.083z"/>
				</defs>
				<defs>
					<path id="SVGID_59_" d="M1113.083,458.577c0-12.449,1.263-24.238,1.263-35.705c0-16.48-9.891-25.813-24.722-34.058
						c-14.833-8.237-76.947-29.839-76.947-29.839c-14.324,24.545-62.101,24.348-62.101,24.348s-47.77,0.197-62.098-24.348
						c0,0-62.113,21.602-76.94,29.839c-14.836,8.244-24.723,17.577-24.723,34.058c0,11.467,1.259,25.58,1.259,35.705H1113.083z"/>
				</defs>
				<defs>
					<path id="SVGID_60_" d="M1113.083,458.577c0-12.449,1.263-24.238,1.263-35.705c0-16.48-9.891-25.813-24.722-34.058
						c-14.833-8.237-76.947-29.839-76.947-29.839c-14.324,24.545-62.101,24.348-62.101,24.348s-47.77,0.197-62.098-24.348
						c0,0-62.113,21.602-76.94,29.839c-14.836,8.244-24.723,17.577-24.723,34.058c0,11.467,1.259,25.58,1.259,35.705H1113.083z"/>
				</defs>
				<defs>
					<path id="SVGID_61_" d="M1113.083,458.577c0-12.449,1.263-24.238,1.263-35.705c0-16.48-9.891-25.813-24.722-34.058
						c-14.833-8.237-76.947-29.839-76.947-29.839c-14.324,24.545-62.101,24.348-62.101,24.348s-47.77,0.197-62.098-24.348
						c0,0-62.113,21.602-76.94,29.839c-14.836,8.244-24.723,17.577-24.723,34.058c0,11.467,1.259,25.58,1.259,35.705H1113.083z"/>
				</defs>
				<defs>
					<path id="SVGID_62_" d="M1113.083,458.577c0-12.449,1.263-24.238,1.263-35.705c0-16.48-9.891-25.813-24.722-34.058
						c-14.833-8.237-76.947-29.839-76.947-29.839c-14.324,24.545-62.101,24.348-62.101,24.348s-47.77,0.197-62.098-24.348
						c0,0-62.113,21.602-76.94,29.839c-14.836,8.244-24.723,17.577-24.723,34.058c0,11.467,1.259,25.58,1.259,35.705H1113.083z"/>
				</defs>
				<defs>
					<path id="SVGID_63_" d="M1113.083,458.577c0-12.449,1.263-24.238,1.263-35.705c0-16.48-9.891-25.813-24.722-34.058
						c-14.833-8.237-76.947-29.839-76.947-29.839c-14.324,24.545-62.101,24.348-62.101,24.348s-47.77,0.197-62.098-24.348
						c0,0-62.113,21.602-76.94,29.839c-14.836,8.244-24.723,17.577-24.723,34.058c0,11.467,1.259,25.58,1.259,35.705H1113.083z"/>
				</defs>
				<defs>
					<path id="SVGID_64_" d="M1113.083,458.577c0-12.449,1.263-24.238,1.263-35.705c0-16.48-9.891-25.813-24.722-34.058
						c-14.833-8.237-76.947-29.839-76.947-29.839c-14.324,24.545-62.101,24.348-62.101,24.348s-47.77,0.197-62.098-24.348
						c0,0-62.113,21.602-76.94,29.839c-14.836,8.244-24.723,17.577-24.723,34.058c0,11.467,1.259,25.58,1.259,35.705H1113.083z"/>
				</defs>
				<defs>
					<path id="SVGID_65_" d="M1113.083,458.577c0-12.449,1.263-24.238,1.263-35.705c0-16.48-9.891-25.813-24.722-34.058
						c-14.833-8.237-76.947-29.839-76.947-29.839c-14.324,24.545-62.101,24.348-62.101,24.348s-47.77,0.197-62.098-24.348
						c0,0-62.113,21.602-76.94,29.839c-14.836,8.244-24.723,17.577-24.723,34.058c0,11.467,1.259,25.58,1.259,35.705H1113.083z"/>
				</defs>
				<defs>
					<path id="SVGID_66_" d="M1113.083,458.577c0-12.449,1.263-24.238,1.263-35.705c0-16.48-9.891-25.813-24.722-34.058
						c-14.833-8.237-76.947-29.839-76.947-29.839c-14.324,24.545-62.101,24.348-62.101,24.348s-47.77,0.197-62.098-24.348
						c0,0-62.113,21.602-76.94,29.839c-14.836,8.244-24.723,17.577-24.723,34.058c0,11.467,1.259,25.58,1.259,35.705H1113.083z"/>
				</defs>
				<defs>
					<path id="SVGID_67_" d="M1113.083,458.577c0-12.449,1.263-24.238,1.263-35.705c0-16.48-9.891-25.813-24.722-34.058
						c-14.833-8.237-76.947-29.839-76.947-29.839c-14.324,24.545-62.101,24.348-62.101,24.348s-47.77,0.197-62.098-24.348
						c0,0-62.113,21.602-76.94,29.839c-14.836,8.244-24.723,17.577-24.723,34.058c0,11.467,1.259,25.58,1.259,35.705H1113.083z"/>
				</defs>
				<defs>
					<path id="SVGID_68_" d="M1113.083,458.577c0-12.449,1.263-24.238,1.263-35.705c0-16.48-9.891-25.813-24.722-34.058
						c-14.833-8.237-76.947-29.839-76.947-29.839c-14.324,24.545-62.101,24.348-62.101,24.348s-47.77,0.197-62.098-24.348
						c0,0-62.113,21.602-76.94,29.839c-14.836,8.244-24.723,17.577-24.723,34.058c0,11.467,1.259,25.58,1.259,35.705H1113.083z"/>
				</defs>
				<defs>
					<path id="SVGID_69_" d="M1113.083,458.577c0-12.449,1.263-24.238,1.263-35.705c0-16.48-9.891-25.813-24.722-34.058
						c-14.833-8.237-76.947-29.839-76.947-29.839c-14.324,24.545-62.101,24.348-62.101,24.348s-47.77,0.197-62.098-24.348
						c0,0-62.113,21.602-76.94,29.839c-14.836,8.244-24.723,17.577-24.723,34.058c0,11.467,1.259,25.58,1.259,35.705H1113.083z"/>
				</defs>
				<defs>
					<path id="SVGID_70_" d="M1113.083,458.577c0-12.449,1.263-24.238,1.263-35.705c0-16.48-9.891-25.813-24.722-34.058
						c-14.833-8.237-76.947-29.839-76.947-29.839c-14.324,24.545-62.101,24.348-62.101,24.348s-47.77,0.197-62.098-24.348
						c0,0-62.113,21.602-76.94,29.839c-14.836,8.244-24.723,17.577-24.723,34.058c0,11.467,1.259,25.58,1.259,35.705H1113.083z"/>
				</defs>
				<defs>
					<path id="SVGID_71_" d="M1113.083,458.577c0-12.449,1.263-24.238,1.263-35.705c0-16.48-9.891-25.813-24.722-34.058
						c-14.833-8.237-76.947-29.839-76.947-29.839c-14.324,24.545-62.101,24.348-62.101,24.348s-47.77,0.197-62.098-24.348
						c0,0-62.113,21.602-76.94,29.839c-14.836,8.244-24.723,17.577-24.723,34.058c0,11.467,1.259,25.58,1.259,35.705H1113.083z"/>
				</defs>
				<defs>
					<path id="SVGID_72_" d="M1113.083,458.577c0-12.449,1.263-24.238,1.263-35.705c0-16.48-9.891-25.813-24.722-34.058
						c-14.833-8.237-76.947-29.839-76.947-29.839c-14.324,24.545-62.101,24.348-62.101,24.348s-47.77,0.197-62.098-24.348
						c0,0-62.113,21.602-76.94,29.839c-14.836,8.244-24.723,17.577-24.723,34.058c0,11.467,1.259,25.58,1.259,35.705H1113.083z"/>
				</defs>
				<defs>
					<path id="SVGID_73_" d="M1113.083,458.577c0-12.449,1.263-24.238,1.263-35.705c0-16.48-9.891-25.813-24.722-34.058
						c-14.833-8.237-76.947-29.839-76.947-29.839c-14.324,24.545-62.101,24.348-62.101,24.348s-47.77,0.197-62.098-24.348
						c0,0-62.113,21.602-76.94,29.839c-14.836,8.244-24.723,17.577-24.723,34.058c0,11.467,1.259,25.58,1.259,35.705H1113.083z"/>
				</defs>
				<defs>
					<path id="SVGID_74_" d="M1113.083,458.577c0-12.449,1.263-24.238,1.263-35.705c0-16.48-9.891-25.813-24.722-34.058
						c-14.833-8.237-76.947-29.839-76.947-29.839c-14.324,24.545-62.101,24.348-62.101,24.348s-47.77,0.197-62.098-24.348
						c0,0-62.113,21.602-76.94,29.839c-14.836,8.244-24.723,17.577-24.723,34.058c0,11.467,1.259,25.58,1.259,35.705H1113.083z"/>
				</defs>
				<defs>
					<path id="SVGID_75_" d="M1113.083,458.577c0-12.449,1.263-24.238,1.263-35.705c0-16.48-9.891-25.813-24.722-34.058
						c-14.833-8.237-76.947-29.839-76.947-29.839c-14.324,24.545-62.101,24.348-62.101,24.348s-47.77,0.197-62.098-24.348
						c0,0-62.113,21.602-76.94,29.839c-14.836,8.244-24.723,17.577-24.723,34.058c0,11.467,1.259,25.58,1.259,35.705H1113.083z"/>
				</defs>
				<defs>
					<path id="SVGID_76_" d="M1113.083,458.577c0-12.449,1.263-24.238,1.263-35.705c0-16.48-9.891-25.813-24.722-34.058
						c-14.833-8.237-76.947-29.839-76.947-29.839c-14.324,24.545-62.101,24.348-62.101,24.348s-47.77,0.197-62.098-24.348
						c0,0-62.113,21.602-76.94,29.839c-14.836,8.244-24.723,17.577-24.723,34.058c0,11.467,1.259,25.58,1.259,35.705H1113.083z"/>
				</defs>
				<defs>
					<path id="SVGID_77_" d="M1113.083,458.577c0-12.449,1.263-24.238,1.263-35.705c0-16.48-9.891-25.813-24.722-34.058
						c-14.833-8.237-76.947-29.839-76.947-29.839c-14.324,24.545-62.101,24.348-62.101,24.348s-47.77,0.197-62.098-24.348
						c0,0-62.113,21.602-76.94,29.839c-14.836,8.244-24.723,17.577-24.723,34.058c0,11.467,1.259,25.58,1.259,35.705H1113.083z"/>
				</defs>
				<defs>
					<path id="SVGID_78_" d="M1113.083,458.577c0-12.449,1.263-24.238,1.263-35.705c0-16.48-9.891-25.813-24.722-34.058
						c-14.833-8.237-76.947-29.839-76.947-29.839c-14.324,24.545-62.101,24.348-62.101,24.348s-47.77,0.197-62.098-24.348
						c0,0-62.113,21.602-76.94,29.839c-14.836,8.244-24.723,17.577-24.723,34.058c0,11.467,1.259,25.58,1.259,35.705H1113.083z"/>
				</defs>
				<defs>
					<path id="SVGID_79_" d="M1113.083,458.577c0-12.449,1.263-24.238,1.263-35.705c0-16.48-9.891-25.813-24.722-34.058
						c-14.833-8.237-76.947-29.839-76.947-29.839c-14.324,24.545-62.101,24.348-62.101,24.348s-47.77,0.197-62.098-24.348
						c0,0-62.113,21.602-76.94,29.839c-14.836,8.244-24.723,17.577-24.723,34.058c0,11.467,1.259,25.58,1.259,35.705H1113.083z"/>
				</defs>
				<defs>
					<path id="SVGID_80_" d="M1113.083,458.577c0-12.449,1.263-24.238,1.263-35.705c0-16.48-9.891-25.813-24.722-34.058
						c-14.833-8.237-76.947-29.839-76.947-29.839c-14.324,24.545-62.101,24.348-62.101,24.348s-47.77,0.197-62.098-24.348
						c0,0-62.113,21.602-76.94,29.839c-14.836,8.244-24.723,17.577-24.723,34.058c0,11.467,1.259,25.58,1.259,35.705H1113.083z"/>
				</defs>
				<defs>
					<path id="SVGID_81_" d="M1113.083,458.577c0-12.449,1.263-24.238,1.263-35.705c0-16.48-9.891-25.813-24.722-34.058
						c-14.833-8.237-76.947-29.839-76.947-29.839c-14.324,24.545-62.101,24.348-62.101,24.348s-47.77,0.197-62.098-24.348
						c0,0-62.113,21.602-76.94,29.839c-14.836,8.244-24.723,17.577-24.723,34.058c0,11.467,1.259,25.58,1.259,35.705H1113.083z"/>
				</defs>
				<defs>
					<path id="SVGID_82_" d="M1113.083,458.577c0-12.449,1.263-24.238,1.263-35.705c0-16.48-9.891-25.813-24.722-34.058
						c-14.833-8.237-76.947-29.839-76.947-29.839c-14.324,24.545-62.101,24.348-62.101,24.348s-47.77,0.197-62.098-24.348
						c0,0-62.113,21.602-76.94,29.839c-14.836,8.244-24.723,17.577-24.723,34.058c0,11.467,1.259,25.58,1.259,35.705H1113.083z"/>
				</defs>
				<defs>
					<path id="SVGID_83_" d="M1113.083,458.577c0-12.449,1.263-24.238,1.263-35.705c0-16.48-9.891-25.813-24.722-34.058
						c-14.833-8.237-76.947-29.839-76.947-29.839c-14.324,24.545-62.101,24.348-62.101,24.348s-47.77,0.197-62.098-24.348
						c0,0-62.113,21.602-76.94,29.839c-14.836,8.244-24.723,17.577-24.723,34.058c0,11.467,1.259,25.58,1.259,35.705H1113.083z"/>
				</defs>
				<defs>
					<path id="SVGID_84_" d="M1113.083,458.577c0-12.449,1.263-24.238,1.263-35.705c0-16.48-9.891-25.813-24.722-34.058
						c-14.833-8.237-76.947-29.839-76.947-29.839c-14.324,24.545-62.101,24.348-62.101,24.348s-47.77,0.197-62.098-24.348
						c0,0-62.113,21.602-76.94,29.839c-14.836,8.244-24.723,17.577-24.723,34.058c0,11.467,1.259,25.58,1.259,35.705H1113.083z"/>
				</defs>
				<defs>
					<path id="SVGID_85_" d="M1113.083,458.577c0-12.449,1.263-24.238,1.263-35.705c0-16.48-9.891-25.813-24.722-34.058
						c-14.833-8.237-76.947-29.839-76.947-29.839c-14.324,24.545-62.101,24.348-62.101,24.348s-47.77,0.197-62.098-24.348
						c0,0-62.113,21.602-76.94,29.839c-14.836,8.244-24.723,17.577-24.723,34.058c0,11.467,1.259,25.58,1.259,35.705H1113.083z"/>
				</defs>
				<defs>
					<path id="SVGID_86_" d="M1113.083,458.577c0-12.449,1.263-24.238,1.263-35.705c0-16.48-9.891-25.813-24.722-34.058
						c-14.833-8.237-76.947-29.839-76.947-29.839c-14.324,24.545-62.101,24.348-62.101,24.348s-47.77,0.197-62.098-24.348
						c0,0-62.113,21.602-76.94,29.839c-14.836,8.244-24.723,17.577-24.723,34.058c0,11.467,1.259,25.58,1.259,35.705H1113.083z"/>
				</defs>
				<defs>
					<path id="SVGID_87_" d="M1113.083,458.577c0-12.449,1.263-24.238,1.263-35.705c0-16.48-9.891-25.813-24.722-34.058
						c-14.833-8.237-76.947-29.839-76.947-29.839c-14.324,24.545-62.101,24.348-62.101,24.348s-47.77,0.197-62.098-24.348
						c0,0-62.113,21.602-76.94,29.839c-14.836,8.244-24.723,17.577-24.723,34.058c0,11.467,1.259,25.58,1.259,35.705H1113.083z"/>
				</defs>
				<defs>
					<path id="SVGID_88_" d="M1113.083,458.577c0-12.449,1.263-24.238,1.263-35.705c0-16.48-9.891-25.813-24.722-34.058
						c-14.833-8.237-76.947-29.839-76.947-29.839c-14.324,24.545-62.101,24.348-62.101,24.348s-47.77,0.197-62.098-24.348
						c0,0-62.113,21.602-76.94,29.839c-14.836,8.244-24.723,17.577-24.723,34.058c0,11.467,1.259,25.58,1.259,35.705H1113.083z"/>
				</defs>
				<defs>
					<path id="SVGID_89_" d="M1113.083,458.577c0-12.449,1.263-24.238,1.263-35.705c0-16.48-9.891-25.813-24.722-34.058
						c-14.833-8.237-76.947-29.839-76.947-29.839c-14.324,24.545-62.101,24.348-62.101,24.348s-47.77,0.197-62.098-24.348
						c0,0-62.113,21.602-76.94,29.839c-14.836,8.244-24.723,17.577-24.723,34.058c0,11.467,1.259,25.58,1.259,35.705H1113.083z"/>
				</defs>
				<defs>
					<path id="SVGID_90_" d="M1113.083,458.577c0-12.449,1.263-24.238,1.263-35.705c0-16.48-9.891-25.813-24.722-34.058
						c-14.833-8.237-76.947-29.839-76.947-29.839c-14.324,24.545-62.101,24.348-62.101,24.348s-47.77,0.197-62.098-24.348
						c0,0-62.113,21.602-76.94,29.839c-14.836,8.244-24.723,17.577-24.723,34.058c0,11.467,1.259,25.58,1.259,35.705H1113.083z"/>
				</defs>
				<defs>
					<path id="SVGID_91_" d="M1113.083,458.577c0-12.449,1.263-24.238,1.263-35.705c0-16.48-9.891-25.813-24.722-34.058
						c-14.833-8.237-76.947-29.839-76.947-29.839c-14.324,24.545-62.101,24.348-62.101,24.348s-47.77,0.197-62.098-24.348
						c0,0-62.113,21.602-76.94,29.839c-14.836,8.244-24.723,17.577-24.723,34.058c0,11.467,1.259,25.58,1.259,35.705H1113.083z"/>
				</defs>
				<clipPath id="SVGID_92_">
					<use xlink:href="#SVGID_53_"  overflow="visible"/>
				</clipPath>
				<clipPath id="SVGID_93_" clip-path="url(#SVGID_92_)">
					<use xlink:href="#SVGID_54_"  overflow="visible"/>
				</clipPath>
				<clipPath id="SVGID_94_" clip-path="url(#SVGID_93_)">
					<use xlink:href="#SVGID_55_"  overflow="visible"/>
				</clipPath>
				<clipPath id="SVGID_95_" clip-path="url(#SVGID_94_)">
					<use xlink:href="#SVGID_56_"  overflow="visible"/>
				</clipPath>
				<clipPath id="SVGID_96_" clip-path="url(#SVGID_95_)">
					<use xlink:href="#SVGID_57_"  overflow="visible"/>
				</clipPath>
				<clipPath id="SVGID_97_" clip-path="url(#SVGID_96_)">
					<use xlink:href="#SVGID_58_"  overflow="visible"/>
				</clipPath>
				<clipPath id="SVGID_98_" clip-path="url(#SVGID_97_)">
					<use xlink:href="#SVGID_59_"  overflow="visible"/>
				</clipPath>
				<clipPath id="SVGID_99_" clip-path="url(#SVGID_98_)">
					<use xlink:href="#SVGID_60_"  overflow="visible"/>
				</clipPath>
				<clipPath id="SVGID_100_" clip-path="url(#SVGID_99_)">
					<use xlink:href="#SVGID_61_"  overflow="visible"/>
				</clipPath>
				<clipPath id="SVGID_101_" clip-path="url(#SVGID_100_)">
					<use xlink:href="#SVGID_62_"  overflow="visible"/>
				</clipPath>
				<clipPath id="SVGID_102_" clip-path="url(#SVGID_101_)">
					<use xlink:href="#SVGID_63_"  overflow="visible"/>
				</clipPath>
				<clipPath id="SVGID_103_" clip-path="url(#SVGID_102_)">
					<use xlink:href="#SVGID_64_"  overflow="visible"/>
				</clipPath>
				<clipPath id="SVGID_104_" clip-path="url(#SVGID_103_)">
					<use xlink:href="#SVGID_65_"  overflow="visible"/>
				</clipPath>
				<clipPath id="SVGID_105_" clip-path="url(#SVGID_104_)">
					<use xlink:href="#SVGID_66_"  overflow="visible"/>
				</clipPath>
				<clipPath id="SVGID_106_" clip-path="url(#SVGID_105_)">
					<use xlink:href="#SVGID_67_"  overflow="visible"/>
				</clipPath>
				<clipPath id="SVGID_107_" clip-path="url(#SVGID_106_)">
					<use xlink:href="#SVGID_68_"  overflow="visible"/>
				</clipPath>
				<clipPath id="SVGID_108_" clip-path="url(#SVGID_107_)">
					<use xlink:href="#SVGID_69_"  overflow="visible"/>
				</clipPath>
				<clipPath id="SVGID_109_" clip-path="url(#SVGID_108_)">
					<use xlink:href="#SVGID_70_"  overflow="visible"/>
				</clipPath>
				<clipPath id="SVGID_110_" clip-path="url(#SVGID_109_)">
					<use xlink:href="#SVGID_71_"  overflow="visible"/>
				</clipPath>
				<clipPath id="SVGID_111_" clip-path="url(#SVGID_110_)">
					<use xlink:href="#SVGID_72_"  overflow="visible"/>
				</clipPath>
				<clipPath id="SVGID_112_" clip-path="url(#SVGID_111_)">
					<use xlink:href="#SVGID_73_"  overflow="visible"/>
				</clipPath>
				<clipPath id="SVGID_113_" clip-path="url(#SVGID_112_)">
					<use xlink:href="#SVGID_74_"  overflow="visible"/>
				</clipPath>
				<clipPath id="SVGID_114_" clip-path="url(#SVGID_113_)">
					<use xlink:href="#SVGID_75_"  overflow="visible"/>
				</clipPath>
				<clipPath id="SVGID_115_" clip-path="url(#SVGID_114_)">
					<use xlink:href="#SVGID_76_"  overflow="visible"/>
				</clipPath>
				<clipPath id="SVGID_116_" clip-path="url(#SVGID_115_)">
					<use xlink:href="#SVGID_77_"  overflow="visible"/>
				</clipPath>
				<clipPath id="SVGID_117_" clip-path="url(#SVGID_116_)">
					<use xlink:href="#SVGID_78_"  overflow="visible"/>
				</clipPath>
				<clipPath id="SVGID_118_" clip-path="url(#SVGID_117_)">
					<use xlink:href="#SVGID_79_"  overflow="visible"/>
				</clipPath>
				<clipPath id="SVGID_119_" clip-path="url(#SVGID_118_)">
					<use xlink:href="#SVGID_80_"  overflow="visible"/>
				</clipPath>
				<clipPath id="SVGID_120_" clip-path="url(#SVGID_119_)">
					<use xlink:href="#SVGID_81_"  overflow="visible"/>
				</clipPath>
				<clipPath id="SVGID_121_" clip-path="url(#SVGID_120_)">
					<use xlink:href="#SVGID_82_"  overflow="visible"/>
				</clipPath>
				<clipPath id="SVGID_122_" clip-path="url(#SVGID_121_)">
					<use xlink:href="#SVGID_83_"  overflow="visible"/>
				</clipPath>
				<clipPath id="SVGID_123_" clip-path="url(#SVGID_122_)">
					<use xlink:href="#SVGID_84_"  overflow="visible"/>
				</clipPath>
				<clipPath id="SVGID_124_" clip-path="url(#SVGID_123_)">
					<use xlink:href="#SVGID_85_"  overflow="visible"/>
				</clipPath>
				<clipPath id="SVGID_125_" clip-path="url(#SVGID_124_)">
					<use xlink:href="#SVGID_86_"  overflow="visible"/>
				</clipPath>
				<clipPath id="SVGID_126_" clip-path="url(#SVGID_125_)">
					<use xlink:href="#SVGID_87_"  overflow="visible"/>
				</clipPath>
				<clipPath id="SVGID_127_" clip-path="url(#SVGID_126_)">
					<use xlink:href="#SVGID_88_"  overflow="visible"/>
				</clipPath>
				<clipPath id="SVGID_128_" clip-path="url(#SVGID_127_)">
					<use xlink:href="#SVGID_89_"  overflow="visible"/>
				</clipPath>
				<clipPath id="SVGID_129_" clip-path="url(#SVGID_128_)">
					<use xlink:href="#SVGID_90_"  overflow="visible"/>
				</clipPath>
				<clipPath id="SVGID_130_" clip-path="url(#SVGID_129_)">
					<use xlink:href="#SVGID_91_"  overflow="visible"/>
				</clipPath>
				<g clip-path="url(#SVGID_130_)">
					<path fill="#DD7D16" d="M779.911,352.254c0,6.328-5.133,11.465-11.459,11.465c-6.325,0-11.455-5.137-11.455-11.465
						c0-6.323,5.13-11.452,11.455-11.452C774.778,340.802,779.911,345.931,779.911,352.254z"/>
					<path fill="#DD7D16" d="M832.78,352.254c0,6.328-5.13,11.465-11.46,11.465c-6.326,0-11.449-5.137-11.449-11.465
						c0-6.323,5.122-11.452,11.449-11.452C827.65,340.802,832.78,345.931,832.78,352.254z"/>
				</g>
				<path clip-path="url(#SVGID_130_)" fill="#DD7D16" d="M885.659,352.254c0,6.328-5.131,11.465-11.458,11.465
					c-6.324,0-11.458-5.137-11.458-11.465c0-6.323,5.134-11.452,11.458-11.452C880.528,340.802,885.659,345.931,885.659,352.254z"/>
				<path clip-path="url(#SVGID_130_)" fill="#DD7D16" d="M938.538,352.254c0,6.328-5.131,11.465-11.46,11.465
					c-6.332,0-11.459-5.137-11.459-11.465c0-6.323,5.127-11.452,11.459-11.452C933.407,340.802,938.538,345.931,938.538,352.254z"/>
				<path clip-path="url(#SVGID_130_)" fill="#DD7D16" d="M991.409,352.254c0,6.328-5.131,11.465-11.453,11.465
					c-6.334,0-11.461-5.137-11.461-11.465c0-6.323,5.127-11.452,11.461-11.452C986.278,340.802,991.409,345.931,991.409,352.254z"/>
				<path clip-path="url(#SVGID_130_)" fill="#DD7D16" d="M1044.283,352.254c0,6.328-5.131,11.465-11.459,11.465
					c-6.329,0-11.464-5.137-11.464-11.465c0-6.323,5.135-11.452,11.464-11.452C1039.152,340.802,1044.283,345.931,1044.283,352.254z
					"/>
				<path clip-path="url(#SVGID_130_)" fill="#DD7D16" d="M1097.158,352.254c0,6.328-5.132,11.465-11.461,11.465
					c-6.33,0-11.453-5.137-11.453-11.465c0-6.323,5.123-11.452,11.453-11.452C1092.026,340.802,1097.158,345.931,1097.158,352.254z"
					/>
				<path clip-path="url(#SVGID_130_)" fill="#DD7D16" d="M1150.03,352.254c0,6.328-5.127,11.465-11.455,11.465
					s-11.46-5.137-11.46-11.465c0-6.323,5.132-11.452,11.46-11.452S1150.03,345.931,1150.03,352.254z"/>
				<g clip-path="url(#SVGID_130_)">
					<path fill="#DD7D16" d="M806.347,389.268c0,6.328-5.129,11.458-11.46,11.458c-6.326,0-11.459-5.13-11.459-11.458
						c0-6.329,5.132-11.452,11.459-11.452C801.219,377.816,806.347,382.939,806.347,389.268z"/>
					<path fill="#DD7D16" d="M859.22,389.268c0,6.328-5.131,11.458-11.459,11.458c-6.327,0-11.449-5.13-11.449-11.458
						c0-6.329,5.122-11.452,11.449-11.452C854.09,377.816,859.22,382.939,859.22,389.268z"/>
				</g>
				<path clip-path="url(#SVGID_130_)" fill="#DD7D16" d="M912.092,389.268c0,6.328-5.129,11.458-11.458,11.458
					c-6.327,0-11.457-5.13-11.457-11.458c0-6.329,5.129-11.452,11.457-11.452C906.963,377.816,912.092,382.939,912.092,389.268z"/>
				<path clip-path="url(#SVGID_130_)" fill="#DD7D16" d="M964.974,389.268c0,6.328-5.128,11.458-11.463,11.458
					c-6.328,0-11.461-5.13-11.461-11.458c0-6.329,5.133-11.452,11.461-11.452C959.845,377.816,964.974,382.939,964.974,389.268z"/>
				<path clip-path="url(#SVGID_130_)" fill="#DD7D16" d="M1017.85,389.268c0,6.328-5.132,11.458-11.461,11.458
					c-6.328,0-11.458-5.13-11.458-11.458c0-6.329,5.13-11.452,11.458-11.452C1012.719,377.816,1017.85,382.939,1017.85,389.268z"/>
				<path clip-path="url(#SVGID_130_)" fill="#DD7D16" d="M1070.719,389.268c0,6.328-5.13,11.458-11.459,11.458
					c-6.326,0-11.456-5.13-11.456-11.458c0-6.329,5.13-11.452,11.456-11.452C1065.59,377.816,1070.719,382.939,1070.719,389.268z"/>
				<path clip-path="url(#SVGID_130_)" fill="#DD7D16" d="M1123.594,389.268c0,6.328-5.129,11.458-11.458,11.458
					c-6.327,0-11.457-5.13-11.457-11.458c0-6.329,5.13-11.452,11.457-11.452C1118.465,377.816,1123.594,382.939,1123.594,389.268z"
					/>
				<g clip-path="url(#SVGID_130_)">
					<path fill="#DD7D16" d="M779.911,426.281c0,6.327-5.133,11.457-11.459,11.457c-6.325,0-11.455-5.13-11.455-11.457
						c0-6.33,5.13-11.453,11.455-11.453C774.778,414.827,779.911,419.951,779.911,426.281z"/>
					<path fill="#DD7D16" d="M832.78,426.281c0,6.327-5.13,11.457-11.46,11.457c-6.326,0-11.449-5.13-11.449-11.457
						c0-6.33,5.122-11.453,11.449-11.453C827.65,414.827,832.78,419.951,832.78,426.281z"/>
				</g>
				<path clip-path="url(#SVGID_130_)" fill="#DD7D16" d="M885.659,426.281c0,6.327-5.131,11.457-11.458,11.457
					c-6.324,0-11.458-5.13-11.458-11.457c0-6.33,5.134-11.453,11.458-11.453C880.528,414.827,885.659,419.951,885.659,426.281z"/>
				<path clip-path="url(#SVGID_130_)" fill="#DD7D16" d="M938.538,426.281c0,6.327-5.131,11.457-11.46,11.457
					c-6.332,0-11.459-5.13-11.459-11.457c0-6.33,5.127-11.453,11.459-11.453C933.407,414.827,938.538,419.951,938.538,426.281z"/>
				<path clip-path="url(#SVGID_130_)" fill="#DD7D16" d="M991.409,426.281c0,6.327-5.131,11.457-11.453,11.457
					c-6.334,0-11.461-5.13-11.461-11.457c0-6.33,5.127-11.453,11.461-11.453C986.278,414.827,991.409,419.951,991.409,426.281z"/>
				<path clip-path="url(#SVGID_130_)" fill="#DD7D16" d="M1044.283,426.281c0,6.327-5.131,11.457-11.459,11.457
					c-6.329,0-11.464-5.13-11.464-11.457c0-6.33,5.135-11.453,11.464-11.453C1039.152,414.827,1044.283,419.951,1044.283,426.281z"
					/>
				<path clip-path="url(#SVGID_130_)" fill="#DD7D16" d="M1097.158,426.281c0,6.327-5.132,11.457-11.461,11.457
					c-6.33,0-11.453-5.13-11.453-11.457c0-6.33,5.123-11.453,11.453-11.453C1092.026,414.827,1097.158,419.951,1097.158,426.281z"/>
				<path clip-path="url(#SVGID_130_)" fill="#DD7D16" d="M1150.03,426.281c0,6.327-5.127,11.457-11.455,11.457
					s-11.46-5.13-11.46-11.457c0-6.33,5.132-11.453,11.46-11.453S1150.03,419.951,1150.03,426.281z"/>
				<g clip-path="url(#SVGID_130_)">
					<path fill="#DD7D16" d="M806.347,463.292c0,6.329-5.129,11.458-11.46,11.458c-6.326,0-11.459-5.129-11.459-11.458
						c0-6.328,5.132-11.457,11.459-11.457C801.219,451.835,806.347,456.964,806.347,463.292z"/>
					<path fill="#DD7D16" d="M859.22,463.292c0,6.329-5.131,11.458-11.459,11.458c-6.327,0-11.449-5.129-11.449-11.458
						c0-6.328,5.122-11.457,11.449-11.457C854.09,451.835,859.22,456.964,859.22,463.292z"/>
				</g>
				<circle clip-path="url(#SVGID_130_)" fill="#DD7D16" cx="900.635" cy="463.292" r="11.457"/>
				<path clip-path="url(#SVGID_130_)" fill="#DD7D16" d="M964.974,463.292c0,6.329-5.128,11.458-11.463,11.458
					c-6.328,0-11.461-5.129-11.461-11.458c0-6.328,5.133-11.457,11.461-11.457C959.845,451.835,964.974,456.964,964.974,463.292z"/>
				<path clip-path="url(#SVGID_130_)" fill="#DD7D16" d="M1017.85,463.292c0,6.329-5.132,11.458-11.461,11.458
					c-6.328,0-11.458-5.129-11.458-11.458c0-6.328,5.13-11.457,11.458-11.457C1012.719,451.835,1017.85,456.964,1017.85,463.292z"/>
				<path clip-path="url(#SVGID_130_)" fill="#DD7D16" d="M1070.719,463.292c0,6.329-5.13,11.458-11.459,11.458
					c-6.326,0-11.456-5.129-11.456-11.458c0-6.328,5.13-11.457,11.456-11.457C1065.59,451.835,1070.719,456.964,1070.719,463.292z"
					/>
				<path clip-path="url(#SVGID_130_)" fill="#DD7D16" d="M1123.594,463.292c0,6.329-5.129,11.458-11.458,11.458
					c-6.327,0-11.457-5.129-11.457-11.458c0-6.328,5.13-11.457,11.457-11.457C1118.465,451.835,1123.594,456.964,1123.594,463.292z"
					/>
				<g clip-path="url(#SVGID_130_)">
					<path fill="#DD7D16" d="M779.911,500.299c0,6.334-5.133,11.463-11.459,11.463c-6.325,0-11.455-5.129-11.455-11.463
						c0-6.322,5.13-11.447,11.455-11.447C774.778,488.853,779.911,493.977,779.911,500.299z"/>
					<path fill="#DD7D16" d="M832.78,500.299c0,6.334-5.13,11.463-11.46,11.463c-6.326,0-11.449-5.129-11.449-11.463
						c0-6.322,5.122-11.447,11.449-11.447C827.65,488.853,832.78,493.977,832.78,500.299z"/>
				</g>
				<path clip-path="url(#SVGID_130_)" fill="#DD7D16" d="M885.659,500.299c0,6.334-5.131,11.463-11.458,11.463
					c-6.324,0-11.458-5.129-11.458-11.463c0-6.322,5.134-11.447,11.458-11.447C880.528,488.853,885.659,493.977,885.659,500.299z"/>
				<path clip-path="url(#SVGID_130_)" fill="#DD7D16" d="M938.538,500.299c0,6.334-5.131,11.463-11.46,11.463
					c-6.332,0-11.459-5.129-11.459-11.463c0-6.322,5.127-11.447,11.459-11.447C933.407,488.853,938.538,493.977,938.538,500.299z"/>
				<path clip-path="url(#SVGID_130_)" fill="#DD7D16" d="M991.409,500.299c0,6.334-5.131,11.463-11.453,11.463
					c-6.334,0-11.461-5.129-11.461-11.463c0-6.322,5.127-11.447,11.461-11.447C986.278,488.853,991.409,493.977,991.409,500.299z"/>
				<path clip-path="url(#SVGID_130_)" fill="#DD7D16" d="M1044.283,500.299c0,6.334-5.131,11.463-11.459,11.463
					c-6.329,0-11.464-5.129-11.464-11.463c0-6.322,5.135-11.447,11.464-11.447C1039.152,488.853,1044.283,493.977,1044.283,500.299z
					"/>
				<path clip-path="url(#SVGID_130_)" fill="#DD7D16" d="M1097.158,500.299c0,6.334-5.132,11.463-11.461,11.463
					c-6.33,0-11.453-5.129-11.453-11.463c0-6.322,5.123-11.447,11.453-11.447C1092.026,488.853,1097.158,493.977,1097.158,500.299z"
					/>
				<path clip-path="url(#SVGID_130_)" fill="#DD7D16" d="M1150.03,500.299c0,6.334-5.127,11.463-11.455,11.463
					s-11.46-5.129-11.46-11.463c0-6.322,5.132-11.447,11.46-11.447S1150.03,493.977,1150.03,500.299z"/>
				<g clip-path="url(#SVGID_130_)">
					<path fill="#DD7D16" d="M806.347,537.319c0,6.32-5.129,11.46-11.46,11.46c-6.326,0-11.459-5.14-11.459-11.46
						c0-6.331,5.132-11.461,11.459-11.461C801.219,525.858,806.347,530.988,806.347,537.319z"/>
					<path fill="#DD7D16" d="M859.22,537.319c0,6.32-5.131,11.46-11.459,11.46c-6.327,0-11.449-5.14-11.449-11.46
						c0-6.331,5.122-11.461,11.449-11.461C854.09,525.858,859.22,530.988,859.22,537.319z"/>
				</g>
				<path clip-path="url(#SVGID_130_)" fill="#DD7D16" d="M912.092,537.319c0,6.32-5.129,11.46-11.458,11.46
					c-6.327,0-11.457-5.14-11.457-11.46c0-6.331,5.129-11.461,11.457-11.461C906.963,525.858,912.092,530.988,912.092,537.319z"/>
				<path clip-path="url(#SVGID_130_)" fill="#DD7D16" d="M964.974,537.319c0,6.32-5.128,11.46-11.463,11.46
					c-6.328,0-11.461-5.14-11.461-11.46c0-6.331,5.133-11.461,11.461-11.461C959.845,525.858,964.974,530.988,964.974,537.319z"/>
				<path clip-path="url(#SVGID_130_)" fill="#DD7D16" d="M1017.85,537.319c0,6.32-5.132,11.46-11.461,11.46
					c-6.328,0-11.458-5.14-11.458-11.46c0-6.331,5.13-11.461,11.458-11.461C1012.719,525.858,1017.85,530.988,1017.85,537.319z"/>
				<path clip-path="url(#SVGID_130_)" fill="#DD7D16" d="M1070.719,537.319c0,6.32-5.13,11.46-11.459,11.46
					c-6.326,0-11.456-5.14-11.456-11.46c0-6.331,5.13-11.461,11.456-11.461C1065.59,525.858,1070.719,530.988,1070.719,537.319z"/>
				<path clip-path="url(#SVGID_130_)" fill="#DD7D16" d="M1123.594,537.319c0,6.32-5.129,11.46-11.458,11.46
					c-6.327,0-11.457-5.14-11.457-11.46c0-6.331,5.13-11.461,11.457-11.461C1118.465,525.858,1123.594,530.988,1123.594,537.319z"/>
			</g>
			<path fill="#B86716" d="M1012.654,358.642c-19.389,24.164-62.073,24.681-62.073,24.681s-42.686-0.517-62.072-24.681
				l-22.744,8.288c0,0,15.657,38.729,84.816,38.729c69.16,0,84.813-38.729,84.813-38.729L1012.654,358.642z"/>
		</g>
		<g id="dress">
			<path fill="#2768B1" d="M1112.924,457.483c0-12.452,1.263-24.24,1.263-35.707c0-16.479-9.89-25.813-24.723-34.056
				c-14.831-8.237-76.947-29.836-76.947-29.836c0,49.796-62.1,55.072-62.1,55.072s-62.098-5.276-62.098-55.072
				c0,0-62.113,21.599-76.94,29.835c-14.836,8.244-24.723,17.578-24.723,34.057c0,11.467,1.26,25.58,1.26,35.706L1112.924,457.483
				L1112.924,457.483z"/>
			<g id="dress-f">
				<g>
					<defs>
						<path id="SVGID_131_" d="M1112.924,457.483c0-12.452,1.263-24.24,1.263-35.707c0-16.479-9.89-25.813-24.723-34.056
							c-14.831-8.237-76.947-29.836-76.947-29.836c0,49.796-62.1,55.072-62.1,55.072s-62.098-5.276-62.098-55.072
							c0,0-62.113,21.599-76.94,29.835c-14.836,8.244-24.723,17.578-24.723,34.057c0,11.467,1.26,25.58,1.26,35.706
							L1112.924,457.483L1112.924,457.483z"/>
					</defs>
					<defs>
						<path id="SVGID_132_" d="M1112.924,457.483c0-12.452,1.263-24.24,1.263-35.707c0-16.479-9.89-25.813-24.723-34.056
							c-14.831-8.237-76.947-29.836-76.947-29.836c0,49.796-62.1,55.072-62.1,55.072s-62.098-5.276-62.098-55.072
							c0,0-62.113,21.599-76.94,29.835c-14.836,8.244-24.723,17.578-24.723,34.057c0,11.467,1.26,25.58,1.26,35.706
							L1112.924,457.483L1112.924,457.483z"/>
					</defs>
					<defs>
						<path id="SVGID_133_" d="M1112.924,457.483c0-12.452,1.263-24.24,1.263-35.707c0-16.479-9.89-25.813-24.723-34.056
							c-14.831-8.237-76.947-29.836-76.947-29.836c0,49.796-62.1,55.072-62.1,55.072s-62.098-5.276-62.098-55.072
							c0,0-62.113,21.599-76.94,29.835c-14.836,8.244-24.723,17.578-24.723,34.057c0,11.467,1.26,25.58,1.26,35.706
							L1112.924,457.483L1112.924,457.483z"/>
					</defs>
					<defs>
						<path id="SVGID_134_" d="M1112.924,457.483c0-12.452,1.263-24.24,1.263-35.707c0-16.479-9.89-25.813-24.723-34.056
							c-14.831-8.237-76.947-29.836-76.947-29.836c0,49.796-62.1,55.072-62.1,55.072s-62.098-5.276-62.098-55.072
							c0,0-62.113,21.599-76.94,29.835c-14.836,8.244-24.723,17.578-24.723,34.057c0,11.467,1.26,25.58,1.26,35.706
							L1112.924,457.483L1112.924,457.483z"/>
					</defs>
					<defs>
						<path id="SVGID_135_" d="M1112.924,457.483c0-12.452,1.263-24.24,1.263-35.707c0-16.479-9.89-25.813-24.723-34.056
							c-14.831-8.237-76.947-29.836-76.947-29.836c0,49.796-62.1,55.072-62.1,55.072s-62.098-5.276-62.098-55.072
							c0,0-62.113,21.599-76.94,29.835c-14.836,8.244-24.723,17.578-24.723,34.057c0,11.467,1.26,25.58,1.26,35.706
							L1112.924,457.483L1112.924,457.483z"/>
					</defs>
					<defs>
						<path id="SVGID_136_" d="M1112.924,457.483c0-12.452,1.263-24.24,1.263-35.707c0-16.479-9.89-25.813-24.723-34.056
							c-14.831-8.237-76.947-29.836-76.947-29.836c0,49.796-62.1,55.072-62.1,55.072s-62.098-5.276-62.098-55.072
							c0,0-62.113,21.599-76.94,29.835c-14.836,8.244-24.723,17.578-24.723,34.057c0,11.467,1.26,25.58,1.26,35.706
							L1112.924,457.483L1112.924,457.483z"/>
					</defs>
					<defs>
						<path id="SVGID_137_" d="M1112.924,457.483c0-12.452,1.263-24.24,1.263-35.707c0-16.479-9.89-25.813-24.723-34.056
							c-14.831-8.237-76.947-29.836-76.947-29.836c0,49.796-62.1,55.072-62.1,55.072s-62.098-5.276-62.098-55.072
							c0,0-62.113,21.599-76.94,29.835c-14.836,8.244-24.723,17.578-24.723,34.057c0,11.467,1.26,25.58,1.26,35.706
							L1112.924,457.483L1112.924,457.483z"/>
					</defs>
					<defs>
						<path id="SVGID_138_" d="M1112.924,457.483c0-12.452,1.263-24.24,1.263-35.707c0-16.479-9.89-25.813-24.723-34.056
							c-14.831-8.237-76.947-29.836-76.947-29.836c0,49.796-62.1,55.072-62.1,55.072s-62.098-5.276-62.098-55.072
							c0,0-62.113,21.599-76.94,29.835c-14.836,8.244-24.723,17.578-24.723,34.057c0,11.467,1.26,25.58,1.26,35.706
							L1112.924,457.483L1112.924,457.483z"/>
					</defs>
					<defs>
						<path id="SVGID_139_" d="M1112.924,457.483c0-12.452,1.263-24.24,1.263-35.707c0-16.479-9.89-25.813-24.723-34.056
							c-14.831-8.237-76.947-29.836-76.947-29.836c0,49.796-62.1,55.072-62.1,55.072s-62.098-5.276-62.098-55.072
							c0,0-62.113,21.599-76.94,29.835c-14.836,8.244-24.723,17.578-24.723,34.057c0,11.467,1.26,25.58,1.26,35.706
							L1112.924,457.483L1112.924,457.483z"/>
					</defs>
					<defs>
						<path id="SVGID_140_" d="M1112.924,457.483c0-12.452,1.263-24.24,1.263-35.707c0-16.479-9.89-25.813-24.723-34.056
							c-14.831-8.237-76.947-29.836-76.947-29.836c0,49.796-62.1,55.072-62.1,55.072s-62.098-5.276-62.098-55.072
							c0,0-62.113,21.599-76.94,29.835c-14.836,8.244-24.723,17.578-24.723,34.057c0,11.467,1.26,25.58,1.26,35.706
							L1112.924,457.483L1112.924,457.483z"/>
					</defs>
					<defs>
						<path id="SVGID_141_" d="M1112.924,457.483c0-12.452,1.263-24.24,1.263-35.707c0-16.479-9.89-25.813-24.723-34.056
							c-14.831-8.237-76.947-29.836-76.947-29.836c0,49.796-62.1,55.072-62.1,55.072s-62.098-5.276-62.098-55.072
							c0,0-62.113,21.599-76.94,29.835c-14.836,8.244-24.723,17.578-24.723,34.057c0,11.467,1.26,25.58,1.26,35.706
							L1112.924,457.483L1112.924,457.483z"/>
					</defs>
					<defs>
						<path id="SVGID_142_" d="M1112.924,457.483c0-12.452,1.263-24.24,1.263-35.707c0-16.479-9.89-25.813-24.723-34.056
							c-14.831-8.237-76.947-29.836-76.947-29.836c0,49.796-62.1,55.072-62.1,55.072s-62.098-5.276-62.098-55.072
							c0,0-62.113,21.599-76.94,29.835c-14.836,8.244-24.723,17.578-24.723,34.057c0,11.467,1.26,25.58,1.26,35.706
							L1112.924,457.483L1112.924,457.483z"/>
					</defs>
					<defs>
						<path id="SVGID_143_" d="M1112.924,457.483c0-12.452,1.263-24.24,1.263-35.707c0-16.479-9.89-25.813-24.723-34.056
							c-14.831-8.237-76.947-29.836-76.947-29.836c0,49.796-62.1,55.072-62.1,55.072s-62.098-5.276-62.098-55.072
							c0,0-62.113,21.599-76.94,29.835c-14.836,8.244-24.723,17.578-24.723,34.057c0,11.467,1.26,25.58,1.26,35.706
							L1112.924,457.483L1112.924,457.483z"/>
					</defs>
					<defs>
						<path id="SVGID_144_" d="M1112.924,457.483c0-12.452,1.263-24.24,1.263-35.707c0-16.479-9.89-25.813-24.723-34.056
							c-14.831-8.237-76.947-29.836-76.947-29.836c0,49.796-62.1,55.072-62.1,55.072s-62.098-5.276-62.098-55.072
							c0,0-62.113,21.599-76.94,29.835c-14.836,8.244-24.723,17.578-24.723,34.057c0,11.467,1.26,25.58,1.26,35.706
							L1112.924,457.483L1112.924,457.483z"/>
					</defs>
					<defs>
						<path id="SVGID_145_" d="M1112.924,457.483c0-12.452,1.263-24.24,1.263-35.707c0-16.479-9.89-25.813-24.723-34.056
							c-14.831-8.237-76.947-29.836-76.947-29.836c0,49.796-62.1,55.072-62.1,55.072s-62.098-5.276-62.098-55.072
							c0,0-62.113,21.599-76.94,29.835c-14.836,8.244-24.723,17.578-24.723,34.057c0,11.467,1.26,25.58,1.26,35.706
							L1112.924,457.483L1112.924,457.483z"/>
					</defs>
					<defs>
						<path id="SVGID_146_" d="M1112.924,457.483c0-12.452,1.263-24.24,1.263-35.707c0-16.479-9.89-25.813-24.723-34.056
							c-14.831-8.237-76.947-29.836-76.947-29.836c0,49.796-62.1,55.072-62.1,55.072s-62.098-5.276-62.098-55.072
							c0,0-62.113,21.599-76.94,29.835c-14.836,8.244-24.723,17.578-24.723,34.057c0,11.467,1.26,25.58,1.26,35.706
							L1112.924,457.483L1112.924,457.483z"/>
					</defs>
					<clipPath id="SVGID_147_">
						<use xlink:href="#SVGID_131_"  overflow="visible"/>
					</clipPath>
					<clipPath id="SVGID_148_" clip-path="url(#SVGID_147_)">
						<use xlink:href="#SVGID_132_"  overflow="visible"/>
					</clipPath>
					<clipPath id="SVGID_149_" clip-path="url(#SVGID_148_)">
						<use xlink:href="#SVGID_133_"  overflow="visible"/>
					</clipPath>
					<clipPath id="SVGID_150_" clip-path="url(#SVGID_149_)">
						<use xlink:href="#SVGID_134_"  overflow="visible"/>
					</clipPath>
					<clipPath id="SVGID_151_" clip-path="url(#SVGID_150_)">
						<use xlink:href="#SVGID_135_"  overflow="visible"/>
					</clipPath>
					<clipPath id="SVGID_152_" clip-path="url(#SVGID_151_)">
						<use xlink:href="#SVGID_136_"  overflow="visible"/>
					</clipPath>
					<clipPath id="SVGID_153_" clip-path="url(#SVGID_152_)">
						<use xlink:href="#SVGID_137_"  overflow="visible"/>
					</clipPath>
					<clipPath id="SVGID_154_" clip-path="url(#SVGID_153_)">
						<use xlink:href="#SVGID_138_"  overflow="visible"/>
					</clipPath>
					<clipPath id="SVGID_155_" clip-path="url(#SVGID_154_)">
						<use xlink:href="#SVGID_139_"  overflow="visible"/>
					</clipPath>
					<clipPath id="SVGID_156_" clip-path="url(#SVGID_155_)">
						<use xlink:href="#SVGID_140_"  overflow="visible"/>
					</clipPath>
					<clipPath id="SVGID_157_" clip-path="url(#SVGID_156_)">
						<use xlink:href="#SVGID_141_"  overflow="visible"/>
					</clipPath>
					<clipPath id="SVGID_158_" clip-path="url(#SVGID_157_)">
						<use xlink:href="#SVGID_142_"  overflow="visible"/>
					</clipPath>
					<clipPath id="SVGID_159_" clip-path="url(#SVGID_158_)">
						<use xlink:href="#SVGID_143_"  overflow="visible"/>
					</clipPath>
					<clipPath id="SVGID_160_" clip-path="url(#SVGID_159_)">
						<use xlink:href="#SVGID_144_"  overflow="visible"/>
					</clipPath>
					<clipPath id="SVGID_161_" clip-path="url(#SVGID_160_)">
						<use xlink:href="#SVGID_145_"  overflow="visible"/>
					</clipPath>
					<clipPath id="SVGID_162_" clip-path="url(#SVGID_161_)">
						<use xlink:href="#SVGID_146_"  overflow="visible"/>
					</clipPath>
					<polygon clip-path="url(#SVGID_162_)" fill="#1562AA" points="969.656,562.456 954.758,577.356 766.764,389.373 
						781.673,374.471 					"/>
					<polygon clip-path="url(#SVGID_162_)" fill="#1562AA" points="1047.222,577.839 1032.317,592.739 788.678,349.105 
						803.582,334.204 					"/>
					<polygon clip-path="url(#SVGID_162_)" fill="#1562AA" points="1084.195,552.976 1069.284,567.88 825.652,324.24 
						840.55,309.341 					"/>
					<polygon clip-path="url(#SVGID_162_)" fill="#1562AA" points="1113.274,518.222 1098.369,533.127 854.731,289.491 
						869.627,274.592 					"/>
					<polygon clip-path="url(#SVGID_162_)" fill="#1562AA" points="1147.413,490.088 1132.508,504.988 888.871,261.354 
						903.776,246.453 					"/>
					<polygon clip-path="url(#SVGID_162_)" fill="#1562AA" points="1192.295,471.751 1177.397,486.653 952.098,261.354 
						966.995,246.453 					"/>
					<polygon clip-path="url(#SVGID_162_)" fill="#1562AA" points="906.437,566.761 891.531,581.661 736.799,426.923 
						751.695,412.028 					"/>
					<polygon clip-path="url(#SVGID_162_)" fill="#1562AA" points="864.781,585.713 849.875,600.616 728.06,478.795 
						742.959,463.901 					"/>
					<polygon clip-path="url(#SVGID_162_)" fill="#1562AA" points="736.299,460.63 721.397,445.733 934.762,232.365 
						949.661,247.267 					"/>
					<polygon clip-path="url(#SVGID_162_)" fill="#1562AA" points="727.194,532.951 712.294,518.055 997.99,232.365 
						1012.886,247.267 					"/>
					<polygon clip-path="url(#SVGID_162_)" fill="#1562AA" points="774.873,548.501 759.968,533.601 1018.393,275.185 
						1033.289,290.083 					"/>
					<polygon clip-path="url(#SVGID_162_)" fill="#1562AA" points="809.237,577.356 794.332,562.456 1046.324,310.473 
						1061.222,325.37 					"/>
					<polygon clip-path="url(#SVGID_162_)" fill="#1562AA" points="872.455,577.356 857.549,562.456 1083.374,336.638 
						1098.278,351.54 					"/>
					<polygon clip-path="url(#SVGID_162_)" fill="#1562AA" points="935.684,577.356 920.778,562.456 1109.14,374.092 
						1124.048,388.99 					"/>
					<polygon clip-path="url(#SVGID_162_)" fill="#1562AA" points="998.902,577.356 983.997,562.456 1140.779,405.676 
						1155.682,420.577 					"/>
					<polygon clip-path="url(#SVGID_162_)" fill="#1562AA" points="1062.119,577.356 1047.222,562.456 1170.354,439.323 
						1185.256,454.221 					"/>
				</g>
				<path fill="#0C4977" d="M1012.525,357.884c-2.398,50.735-62.104,55.071-62.104,55.071s-59.704-4.337-62.103-55.072l-16.726,5.93
					c0,0,6.445,66.145,78.828,66.145c72.381,0,78.826-66.145,78.826-66.145L1012.525,357.884z"/>
			</g>
		</g>
		<g id="hair">
			<g id="hair-a" display="none">
				<path display="inline" fill="#2E2D2C" d="M847.234,181.524c0,0-1.546-37.085,6.952-64.899
					c8.499-27.817,19.316-46.358,47.13-57.947c27.815-11.59,78.808-33.996,102.76,7.724c0,0,30.132,4.378,40.176,45.456
					c10.046,41.078,5.831,69.584,5.831,69.584s-5.016-4.379-14.233,4.199c0,0-8.594-21.889-7.819-39.656
					c0,0-21.634-19.316-21.634-30.906c0,0-13.909,11.59-49.45,9.271c-35.54-2.319-51.765-11.076-61.037-5.925
					c-9.271,5.153-33.38,30.529-32.609,67.615C863.3,186.039,853.052,177.437,847.234,181.524z"/>
			</g>
			<g id="hair-b">
				<path fill="#2E2D2C" d="M861.814,185.933c0,0,0.466-10.369,6.968-23.631c3.565-7.273,10.259-24.911,19.724-34.625
					c16.111-16.529,67.902,5.762,117.384-12.278c0,0-1.542,12.37,7.217,24.741c8.761,12.369,23.48,25.754,22.967,45.856
					c0,0,6.775-6.547,13.127-4.711c0,0,15.448-73.104-19.601-87.535c0,0,1.137-35.449-26.288-53.606
					C970.986,18.74,955.286,2.578,955.286,2.578s3.879,13.159,10.043,18.104c0,0-17.169,2.063-28.613-18.732
					c0,0-10.39,12.1,4.485,21.186c0,0-11.497,0.108-15.813-8.71c0,0-4.129,15.198,16.581,19.276c0,0-25.026,1.363-22.773-20.403
					c0,0-19.489,13.186-36.241,39.475c0,0,6.185-15.464,9.534-18.813c0,0-14.196,8.235-23.194,37.882
					c0,0-13.92,23.453-19.071,49.225c-5.154,25.775-3.386,45.514-0.294,59.947C849.929,181.013,856.277,180.294,861.814,185.933z"/>
			</g>
			<g id="hair-c" display="none">
				<path display="inline" fill="#2E2D2C" d="M1078.206,227.029c0,0-12.008,5.308-11.259-21.712
					c0.751-27.021-3.689-84.063-21.36-117.837c-17.254-32.986-53.198-55.925-96.595-37.402
					c-43.397-18.522-79.34,4.416-96.598,37.402c-17.667,33.774-22.109,90.816-21.358,117.837
					c0.751,27.02-11.259,21.712-11.259,21.712c6.756,8.954,16.263,0,16.263,0c-3.254,11.206-13.259,7.558-13.259,7.558
					c9.006,12.009,24.015,2.253,24.015,2.253c3.071,34.512-12.758,41.362-12.758,41.362c10.507,0.084,18.015-9.441,18.015-9.441
					c2.25,10.155-3.754,14.672-3.754,14.672c11.258-2.188,12.953-11.422,12.953-11.422c-0.561,18.659-11.451,19.024-11.451,19.024
					c11.258,6.163,22.496-3.158,22.496-3.158c-2.271,9.756-20.245,10.507-20.245,10.507c27.021,12.008,35.187-13.077,35.187-13.077
					s-4.973-7.104-11.546-17.672c-3.479-5.599-6.849-31.406-6.849-31.406s-22.423-9.522-25.116-33.903
					c-2.695-24.383,8.667-22.315,8.667-22.315c14.855,1.963,18.896,20.442,18.896,20.442c-0.273-24.63,26.293-33.413,38.172-47.427
					s3.132-47.031,17.143-55.037c11.409-6.521,19.357,0.234,21.915,2.966c0,0,10.547,34.06,39.998,52.071
					c15.672,9.583,38.446,22.797,38.171,47.427c0,0,4.044-18.479,18.896-20.442c0,0,11.362-2.067,8.669,22.315
					c-2.694,24.381-25.115,33.903-25.115,33.903s0.052,21.5-6.101,31.406c-6.151,9.905-11.651,16.761-11.651,16.761
					s7.523,25.996,34.544,13.988c0,0-17.977-0.751-20.246-10.507c0,0,11.24,9.322,22.498,3.158c0,0-10.895-0.365-11.452-19.024
					c0,0,1.694,9.233,12.953,11.422c0,0-6.005-4.517-3.753-14.672c0,0,7.504,9.525,18.014,9.441c0,0-15.829-6.851-12.761-41.362
					c0,0,15.012,9.756,24.019-2.253c0,0-10.007,3.648-13.259-7.558C1061.945,227.029,1071.45,235.983,1078.206,227.029z"/>
			</g>
			<g id="hair-d" display="none">
				<path display="inline" fill="#2E2D2C" d="M846.642,181.869c0,0-7.207-89.229,12.827-84.605c0,0-1.54-19.007,14.385-28.253
					c15.929-9.247,25.704-22.174,25.704-22.174s1.73,10.512-9.267,17.549c0,0,13.582-6.291,23.526-19.801
					c0,0-2.605,11.567-10.168,17.232c0,0,17.485-15.544,40.069-19.006c0,0-10.744,2.592-17.981,13.356
					c0,0,23.169-7.735,27.859-15.335c0,0-4.69,12.008-15.531,14.82c0,0,22.099-8.628,41.099-9.761c0,0-12.843,3.598-20.549,8.733
					c0,0,20.688-6.663,27.739-9.247c0,0,34.419,15.412,49.83,52.398c15.41,36.988,8.697,83.434,8.697,83.434
					s-4.598-0.026-10.248,5.113c0,0-7.431-15.735-7.738-21.914c-0.445-8.935-6.791-34.23-12.44-42.705
					c-5.651-8.473-18.492-21.83-31.335-18.75c-12.845,3.083-34.778,4.583-53.786,2.014c-19.006-2.568-36.468-0.275-40.902,7.506
					c0,0-14.575,40.781-18.685,47.974c-4.114,7.191-6.289,15.021-9.371,25.811C860.377,186.258,852.599,178.717,846.642,181.869z"/>
			</g>
		</g>
		<g id="glass">
			<g id="glass-a">
				<path fill="#121112" d="M1005.002,170.065c-17.254,0-26.252,2.509-33.921,4.13c-7.59,1.605-16.218,4.653-23.389,4.714
					c-7.171-0.061-15.795-3.108-23.388-4.714c-7.668-1.621-16.666-4.13-33.922-4.13c-20.796,0-31.267,2.065-31.267,2.065
					l1.181,8.996c5.013,1.328,5.162,3.244,6.342,7.228c1.18,3.981,4.056,13.196,5.604,18.435
					c1.161,3.931,4.093,13.451,23.007,15.782c18.397,2.264,27.61-0.765,32.447-4.869c5.604-4.755,10.912-19.616,12.24-25.366
					c1.331-5.753,3.393-4.866,3.393-4.866h4.143h0.441h4.145c0,0,2.062-0.887,3.389,4.866c1.33,5.75,6.638,20.61,12.24,25.366
					c4.84,4.104,14.052,7.133,32.45,4.869c18.916-2.331,21.843-11.852,23.006-15.782c1.548-5.238,4.424-14.453,5.605-18.435
					c1.178-3.983,1.324-5.899,6.339-7.228l1.18-8.996C1036.268,172.13,1025.8,170.065,1005.002,170.065z M921.469,214.178
					c-5.355,3.134-16.195,4.179-25.601,2.872c-9.406-1.306-15.282-4.049-18.156-14.104c-2.875-10.06-3.397-15.415-3.006-19.073
					c0.377-3.496,2.09-6.66,10.582-7.052c8.491-0.393,21.683,0.131,31.086,2.09c9.407,1.96,14.5,3.918,14.893,12.802
					C931.659,200.593,926.825,211.042,921.469,214.178z M1016.793,202.946c-2.875,10.056-8.752,12.798-18.158,14.104
					c-9.4,1.307-20.245,0.262-25.6-2.873c-5.356-3.136-10.193-13.584-9.798-22.466c0.392-8.884,5.488-10.842,14.891-12.802
					c9.405-1.959,22.601-2.482,31.089-2.09c8.488,0.391,10.205,3.556,10.58,7.052
					C1020.189,187.53,1019.666,192.886,1016.793,202.946z"/>
				
					<linearGradient id="SVGID_163_" gradientUnits="userSpaceOnUse" x1="-795.511" y1="-147.7195" x2="-715.1957" y2="-67.4042" gradientTransform="matrix(0.46 0 0 -0.46 1249.3693 144.7298)">
					<stop  offset="0" style="stop-color:#374C9C"/>
					<stop  offset="1" style="stop-color:#1EACE4"/>
				</linearGradient>
				<path opacity="0.9" fill="url(#SVGID_163_)" enable-background="new    " d="M874.707,183.872
					c0.377-3.496,2.09-6.661,10.582-7.052c8.49-0.394,21.682,0.13,31.086,2.089c9.407,1.96,14.5,3.919,14.892,12.802
					c0.393,8.882-4.441,19.331-9.797,22.467c-5.355,3.134-16.195,4.179-25.601,2.872c-9.406-1.306-15.282-4.049-18.156-14.104
					C874.838,192.886,874.315,187.53,874.707,183.872z"/>
				<path opacity="0.2" fill="#FFFFFF" enable-background="new    " d="M904.318,177.258c0.106,8.614,3.556,22.886,23.96,28.373
					c1.973-4.225,3.192-9.285,2.988-13.92c-0.392-8.883-5.484-10.841-14.892-12.802
					C912.755,178.156,908.574,177.616,904.318,177.258z"/>
				
					<linearGradient id="SVGID_164_" gradientUnits="userSpaceOnUse" x1="-601.6956" y1="-151.0598" x2="-514.7042" y2="-64.0684" gradientTransform="matrix(0.46 0 0 -0.46 1249.3693 144.7298)">
					<stop  offset="0" style="stop-color:#374C9C"/>
					<stop  offset="1" style="stop-color:#1EACE4"/>
				</linearGradient>
				<path opacity="0.9" fill="url(#SVGID_164_)" enable-background="new    " d="M1019.797,183.872
					c-0.375-3.496-2.092-6.661-10.58-7.052c-8.488-0.394-21.684,0.13-31.089,2.089c-9.402,1.96-14.499,3.919-14.891,12.802
					c-0.396,8.882,4.441,19.331,9.798,22.467c5.354,3.134,16.199,4.179,25.6,2.872c9.405-1.306,15.283-4.049,18.158-14.104
					C1019.666,192.886,1020.189,187.53,1019.797,183.872z"/>
				<path opacity="0.2" fill="#FFFFFF" enable-background="new    " d="M1009.217,176.821c-3.945-0.184-8.907-0.164-14.032,0.101
					c0.743,8.332,5.001,19.949,21.829,25.245c2.674-9.553,3.163-14.732,2.783-18.295
					C1019.422,180.376,1017.705,177.211,1009.217,176.821z"/>
			</g>
			<g id="glass-b" display="none">
				<polygon display="inline" fill="#61605F" points="947.289,158.106 944.991,158.106 916.561,158.106 916.561,159.553 
					944.991,159.553 947.289,159.553 978.825,159.553 978.825,158.106 				"/>
				<path display="inline" fill="#61605F" d="M1028.193,176.07c-1.297-3.525-5.294-9.457-12.624-12.761
					c-9.426-4.247-19.274-5.158-28.645-4.616c-9.367,0.544-16.967,1.901-22.673,5.837c-3.149,2.177-6.01,4.938-7.066,9.311
					l0.008-0.046l-0.441-0.214c0,0,0.309-3.574-2.09-4.616c-2.398-1.041-4.797-0.904-6.971-0.904c-2.169,0-4.566-0.137-6.965,0.904
					c-2.399,1.042-2.092,4.616-2.092,4.616l-0.443,0.214l0.008,0.046c-1.058-4.372-3.915-7.134-7.069-9.311
					c-5.702-3.936-13.302-5.293-22.669-5.837c-9.366-0.542-19.217,0.369-28.643,4.616c-7.33,3.304-11.326,9.235-12.625,12.761
					c-3.193,8.662-2.172,18.869-1.495,23.077c0.679,4.208,4.618,20.635,19.549,23.893c14.933,3.259,23.079-1.086,31.634-7.872
					c8.547-6.79,14.388-13.169,19.546-27.016c1.853-4.969,2.421-8.9,2.134-12.09l0.074,0.46l1.365-0.362
					c0.048-3.122,0.092-4.705,0.997-5.881c0.904-1.178,6.695-0.952,6.695-0.952s5.793-0.225,6.7,0.952
					c0.904,1.176,0.949,2.759,0.994,5.881l1.366,0.362l0.072-0.46c-0.284,3.188,0.285,7.122,2.135,12.09
					c5.16,13.848,11,20.227,19.551,27.016c8.551,6.786,16.697,11.132,31.63,7.872c14.932-3.258,18.87-19.684,19.546-23.892
					C1030.365,194.94,1031.385,184.732,1028.193,176.07z M934.897,188.292c-4.93,13.236-10.511,19.334-18.685,25.823
					c-8.175,6.487-15.961,10.639-30.235,7.524c-14.272-3.114-18.035-18.814-18.685-22.837s-1.623-13.779,1.427-22.059
					c1.243-3.371,5.063-9.04,12.068-12.198c9.01-4.06,18.427-4.932,27.378-4.411c8.955,0.52,16.221,1.816,21.671,5.579
					C935.287,169.478,939.827,175.057,934.897,188.292z M1028.091,198.803c-0.646,4.022-4.409,19.723-18.681,22.837
					c-14.275,3.114-22.061-1.037-30.237-7.524c-8.174-6.489-13.754-12.587-18.683-25.823c-4.932-13.235-0.392-18.814,5.061-22.577
					c5.449-3.763,12.716-5.061,21.668-5.579c8.954-0.521,18.368,0.351,27.379,4.41c7.01,3.158,10.826,8.828,12.065,12.198
					C1029.716,185.024,1028.741,194.781,1028.091,198.803z"/>
				<path display="inline" opacity="0.8" fill="#222323" enable-background="new    " d="M868.719,176.744
					c1.243-3.37,5.063-9.04,12.068-12.198c9.01-4.06,18.427-4.931,27.378-4.41c8.955,0.519,16.221,1.816,21.671,5.579
					s9.99,9.342,5.06,22.577c-4.93,13.236-10.51,19.334-18.685,25.823c-8.175,6.487-15.96,10.639-30.235,7.524
					c-14.271-3.114-18.034-18.814-18.685-22.837C866.643,194.781,865.67,185.024,868.719,176.744z"/>
				<path display="inline" opacity="0.1" fill="#FFFFFF" enable-background="new    " d="M929.837,165.715
					c-5.45-3.763-12.716-5.061-21.671-5.579c-0.37-0.022-0.742-0.038-1.116-0.056c-0.832,6.951-0.785,26.976,26.111,32.517
					c0.588-1.35,1.167-2.777,1.736-4.305C939.827,175.057,935.287,169.478,929.837,165.715z"/>
				<path display="inline" fill="#61605F" d="M866.166,182.032c0,0-5.994,0.236-6.268,0.778c-0.271,0.545,0,2.896,0,2.896
					s2.018-0.452,5.626-0.543L866.166,182.032z"/>
				<path display="inline" fill="#61605F" d="M1029.219,182.032c0,0,5.995,0.236,6.267,0.778c0.272,0.545,0,2.896,0,2.896
					s-2.016-0.452-5.623-0.543L1029.219,182.032z"/>
				<path display="inline" opacity="0.8" fill="#222323" enable-background="new    " d="M1026.662,176.744
					c-1.238-3.37-5.055-9.04-12.065-12.198c-9.011-4.06-18.425-4.931-27.378-4.41c-8.953,0.519-16.221,1.816-21.668,5.579
					c-5.453,3.763-9.992,9.342-5.061,22.577c4.928,13.236,10.509,19.334,18.683,25.823c8.177,6.487,15.962,10.639,30.236,7.524
					c14.271-3.114,18.035-18.814,18.682-22.837C1028.741,194.781,1029.716,185.024,1026.662,176.744z"/>
				<path display="inline" opacity="0.1" fill="#FFFFFF" enable-background="new    " d="M1028.697,192.97
					c0.241-4.675-0.025-10.771-2.035-16.226c-1.238-3.37-5.055-9.04-12.065-12.198c-4.62-2.08-9.341-3.319-14.057-3.968
					C999.759,168.121,1000.457,188.138,1028.697,192.97z"/>
			</g>
			<g id="glass-c" display="none">
				<path display="inline" fill="#2E2D2C" d="M1005.031,169.177c-17.219,0-26.193,2.499-33.843,4.12
					c-7.575,1.598-16.18,4.641-23.337,4.7c-7.155-0.06-15.758-3.103-23.336-4.7c-7.648-1.62-16.627-4.12-33.842-4.12
					c-20.75,0-31.193,2.059-31.193,2.059l1.175,8.977c5.005,1.322,5.151,3.236,6.33,7.212c1.175,3.969,4.045,13.165,5.591,18.394
					c1.159,3.918,4.082,13.418,22.952,15.744c18.355,2.257,27.549-0.763,32.373-4.859c5.593-4.744,10.889-19.57,12.215-25.309
					c1.32-5.738,3.382-4.854,3.382-4.854h4.133h0.44h4.134c0,0,2.062-0.885,3.383,4.854c1.325,5.738,6.621,20.564,12.213,25.309
					c4.827,4.097,14.018,7.117,32.374,4.859c18.872-2.326,21.796-11.826,22.953-15.744c1.545-5.229,4.412-14.424,5.591-18.394
					c1.179-3.976,1.324-5.891,6.327-7.212l1.177-8.977C1036.222,171.235,1025.779,169.177,1005.031,169.177z M924.076,215.381
					c-6.034,3.528-18.247,4.707-28.842,3.236c-10.592-1.472-17.214-4.562-20.453-15.894c-3.234-11.331-3.825-17.361-3.382-21.481
					c0.423-3.941,2.354-7.505,11.918-7.945c9.563-0.444,24.424,0.147,35.019,2.352c10.596,2.208,16.337,4.416,16.774,14.421
					C935.552,200.076,930.107,211.849,924.076,215.381z M1020.925,202.724c-3.24,11.332-9.86,14.422-20.456,15.894
					c-10.592,1.471-22.807,0.292-28.84-3.236c-6.033-3.532-11.479-15.305-11.035-25.312c0.439-10.004,6.178-12.212,16.773-14.421
					c10.596-2.204,25.458-2.796,35.02-2.352c9.566,0.44,11.495,4.005,11.922,7.945
					C1024.747,185.363,1024.16,191.393,1020.925,202.724z"/>
			</g>
			<g id="glass-d" display="none">
				<path display="inline" fill="#121112" d="M1003.107,171.042c-17.213,0-26.185,2.5-33.83,4.118
					c-7.573,1.604-16.176,4.642-23.33,4.7c-7.156-0.059-15.756-3.097-23.327-4.7c-7.65-1.618-16.623-4.118-33.835-4.118
					c-20.744,0-31.187,2.06-31.187,2.06l1.178,8.973c5.002,1.325,5.149,3.237,6.327,7.208c1.174,3.972,4.041,13.164,5.588,18.389
					c1.158,3.92,4.081,13.416,22.945,15.741c18.351,2.258,27.541-0.762,32.364-4.854c5.589-4.746,10.887-19.566,12.209-25.304
					c1.324-5.736,3.385-4.854,3.385-4.854h4.131h0.44h4.133c0,0,2.058-0.882,3.384,4.854c1.321,5.737,6.618,20.558,12.208,25.304
					c4.824,4.093,14.014,7.112,32.363,4.854c18.867-2.325,21.789-11.82,22.947-15.741c1.545-5.225,4.412-14.417,5.588-18.389
					c1.179-3.971,1.328-5.883,6.326-7.208l1.177-8.973C1034.292,173.102,1023.852,171.042,1003.107,171.042z M919.79,215.04
					c-5.339,3.125-16.154,4.169-25.533,2.865c-9.381-1.302-15.243-4.038-18.109-14.069s-3.387-15.373-2.998-19.021
					c0.373-3.488,2.087-6.643,10.555-7.034c8.468-0.393,21.626,0.132,31.008,2.083c9.38,1.955,14.461,3.91,14.852,12.768
					C929.955,201.49,925.132,211.911,919.79,215.04z M1014.866,203.835c-2.867,10.032-8.729,12.769-18.106,14.07
					c-9.383,1.303-20.197,0.26-25.537-2.865c-5.341-3.129-10.161-13.55-9.772-22.41c0.392-8.857,5.475-10.813,14.852-12.768
					c9.38-1.952,22.542-2.475,31.009-2.083c8.469,0.392,10.181,3.546,10.552,7.034
					C1018.253,188.462,1017.733,193.804,1014.866,203.835z"/>
			</g>
			<g id="glass-e" display="none">
				<path display="inline" fill="#2E2D2C" d="M1026.195,170.042c-2.956-3.506-15.55-12.39-24.761-14.317
					c-0.054-0.014-0.095-0.019-0.15-0.03c-2.71-0.634-5.545-0.977-8.46-0.977c-14.367,0-26.739,8.132-32.395,19.847
					c-2.036-1.093-6.262-2.674-13.701-2.674c-7.437,0-11.665,1.582-13.701,2.674c-5.656-11.714-18.029-19.847-32.392-19.847
					c-2.918,0-5.749,0.343-8.46,0.977c-0.056,0.012-0.098,0.017-0.149,0.03c-9.212,1.928-21.804,10.812-24.76,14.317
					c-2.954,3.51-7.752,2.585-7.752,2.585v7.565c3.507,1.664,5.443,8.68,5.443,8.68c0,18.86,15.973,34.155,35.678,34.155
					c19.703,0,35.676-15.295,35.676-34.155c0-1.536-0.116-3.048-0.319-4.531c3.716-5.381,17.759-5.381,21.477,0
					c-0.205,1.484-0.323,2.995-0.323,4.531c0,18.86,15.974,34.155,35.679,34.155c19.701,0,35.674-15.295,35.674-34.155
					c0,0,1.938-7.016,5.449-8.68v-7.565C1033.946,172.627,1029.145,173.552,1026.195,170.042z M900.635,218.41
					c-17.041,0-30.854-13.226-30.854-29.538c0-16.312,13.813-29.537,30.854-29.537c17.039,0,30.854,13.225,30.854,29.537
					S917.675,218.41,900.635,218.41z M992.824,218.41c-17.043,0-30.855-13.226-30.855-29.538c0-16.312,13.813-29.537,30.855-29.537
					c17.042,0,30.851,13.225,30.851,29.537S1009.866,218.41,992.824,218.41z"/>
			</g>
		</g>
		<g id="laze">
			<g id="laze-a">
			</g>
			<g id="laze-b">
				<polygon fill="#2E2D2C" points="951.174,407.062 951.166,407.062 948.294,407.062 948.285,407.062 933.39,420.612 
					943.748,436.34 948.005,436.34 951.455,436.34 955.711,436.34 966.07,420.612 				"/>
				<polygon fill="#2E2D2C" points="955.711,436.34 949.709,436.34 943.748,436.34 941.332,458.725 950.339,458.725 
					959.736,458.725 				"/>
			</g>
			<g id="laze-c">
				<path fill="#1D1C1C" d="M955.466,410.201c0,0,22.61-16.908,29.662-15.377c8.503,1.84,9.639,15.942,9.639,21.419
					c0,5.479-1.136,22.861-9.451,24.373c-8.312,1.513-27.39-15.117-29.85-17.382C955.466,423.235,956.793,416.657,955.466,410.201z"
					/>
				<path fill="#1D1C1C" d="M942.054,410.201c0,0-22.605-16.908-29.665-15.377c-8.497,1.84-9.634,15.942-9.634,21.419
					c0,5.479,1.137,22.861,9.449,24.373c8.309,1.513,27.39-15.117,29.85-17.382C942.054,423.235,940.732,416.657,942.054,410.201z"
					/>
				<path fill="#1D1C1C" d="M959.624,417.376c0,5.74-4.653,10.392-10.39,10.392c-5.739,0-10.391-4.651-10.391-10.392
					c0-5.734,4.651-10.388,10.391-10.388C954.97,406.989,959.624,411.642,959.624,417.376z"/>
			</g>
		</g>
		<g id="bear">
			<g id="bear-a" display="none">
				<path display="inline" fill="#2E2D2C" d="M967.879,248.009c-14.967-1.148-18.594,12.276-18.594,12.285
					c-0.004-0.01-3.635-13.434-18.6-12.285c-14.974,1.152-19.012,20.35-33.119,10.754c0,0,2.405,16.125,18.913,18.429
					c16.509,2.304,29.9-5.375,32.805-9.215c2.9,3.84,16.294,11.519,32.803,9.215c16.508-2.304,18.911-18.429,18.911-18.429
					C986.892,268.36,982.854,249.161,967.879,248.009z"/>
			</g>
			<g id="bear-b" display="none">
				<path display="inline" fill="#2E2D2C" d="M987.546,259.986c-5.17-5.103-12.506-2.029-12.506,2.656
					c0,4.174,4.231,3.592,4.231,3.592c-2.268,0-2.063-4.132,1.234-4.132c3.301,0,5.376,4.994,0.619,7.138
					c-4.131,1.858-8.744-4.432-19.479-8.413c-8.96-3.324-12.503,2.798-12.883,3.161c-0.382-0.363-3.926-6.485-12.889-3.161
					c-10.733,3.981-15.345,10.271-19.479,8.413c-4.755-2.143-2.681-7.138,0.617-7.138c3.3,0,3.505,4.132,1.239,4.132
					c0,0,4.232,0.583,4.232-3.592c0-4.687-7.339-7.759-12.509-2.656c-7.136,7.039-2.99,18.073,7.546,20.895
					c8.875,2.375,27.255-0.278,31.241-13.795c3.982,13.517,22.36,16.17,31.235,13.795
					C990.538,278.059,994.681,267.024,987.546,259.986z"/>
			</g>
			<g id="bear-c">
				<path fill="#2E2D2C" d="M1028.699,236.151c0,0-7.104,14.493-14.855,23.738c0.272-0.63,0.394-1,0.394-1
					c-4.378,5.991-13.498,2.831-13.498,2.831c10.159-5.365,7.185-14.933,7.185-14.933c-1.961,9.445-12.844,9.272-12.844,9.272
					c6.095-6.096,3.699-12.63,3.699-12.63c-0.871,10.455-11.32,13.938-29.577,5.944c-13.658-5.977-19.514,1.881-21.596,6.213
					c-2.08-4.332-7.935-12.189-21.593-6.213c-18.258,7.993-28.705,4.511-29.579-5.944c0,0-2.394,6.534,3.702,12.63
					c0,0-10.887,0.173-12.845-9.272c0,0-2.977,9.567,7.184,14.933c0,0-9.118,3.16-13.497-2.831c0,0,0.122,0.371,0.394,1.003
					c-7.751-9.246-14.857-23.741-14.857-23.741s-15.668,50.895,0,91.424c23.629,61.119,64.637,72.853,78.916,72.853h4.354
					c13.628,0,55.288-11.733,78.915-72.853C1044.367,287.045,1028.699,236.151,1028.699,236.151z M947.606,290.692
					c-9-0.719-16.985-5.424-21.19-8.376c9.64-1.135,18.342-5.642,21.19-15.851c2.849,10.209,11.553,14.716,21.192,15.851
					C964.594,285.268,956.61,289.974,947.606,290.692z"/>
			</g>
			<g id="bear-d" display="none">
				<path display="inline" fill="#2E2D2C" d="M995.666,267.037c-12.758,0.75-27.019-8.007-35.275-10.258
					c-8.247-2.25-11.747,2.239-11.756,2.251c-0.01-0.011-3.51-4.5-11.758-2.251c-8.255,2.251-22.52,11.008-35.278,10.258
					c0,0,24.769,13.256,47.036,1.248C970.899,280.293,995.666,267.037,995.666,267.037z"/>
			</g>
			<g id="bear-e" display="none">
				<path display="inline" fill="#2E2D2C" d="M891.398,253.081c-0.027-0.178-0.04-0.364-0.027-0.562
					C891.371,252.52,891.361,252.741,891.398,253.081z"/>
				<path display="inline" fill="#2E2D2C" d="M1016.128,253.575c-1.091-9.509-11.091-11.872-17.058-7.895
					c-5.966,3.979-3.356,12.184,1.865,11.81c3.989-0.285,4.783-3.031,4.939-4.313c-0.539,2.961-6.246,2.96-7.18-0.411
					c-0.992-3.604,2.557-5.553,2.557-5.553c8.518-4.31,14.767,10.467,2.871,13.146c-11.891,2.674-27.123,0.178-39.232-4.01
					c-12.103-4.186-16.24-0.006-16.249,0c-0.01-0.006-4.149-4.186-16.253,0c-12.107,4.188-27.341,6.684-39.232,4.01
					c-11.895-2.68-5.646-17.456,2.872-13.146c0,0,3.546,1.948,2.552,5.553c-0.93,3.37-6.639,3.372-7.174,0.411
					c0.154,1.281,0.948,4.027,4.936,4.313c5.221,0.374,7.834-7.829,1.866-11.81c-5.967-3.978-15.965-1.614-17.058,7.895
					c-0.654,5.693,1.913,10.816,7.809,14.647c-0.754,10.953-1.876,44.8,10.526,68.757c12.647,24.429,39.879,33.625,49.152,32.729
					c9.28,0.896,36.509-8.301,49.154-32.729c12.402-23.957,11.284-57.804,10.528-68.757
					C1014.216,264.392,1016.779,259.269,1016.128,253.575z M948.637,294.409c-26.04-1.47-36.554-14.477-39.888-20.046
					c17.225,1.316,39.884-7.3,39.892-7.3c0.006,0,22.66,8.616,39.889,7.3C985.195,279.933,974.681,292.939,948.637,294.409z"/>
				<path display="inline" fill="#2E2D2C" d="M1005.885,253.081c0.031-0.34,0.021-0.562,0.021-0.562
					C1005.922,252.717,1005.906,252.902,1005.885,253.081z"/>
			</g>
			<g id="bear-f" display="none">
				<path display="inline" fill="#2E2D2C" d="M995.685,267.283c-12.758,0.75-27.019-8.008-35.276-10.259
					c-8.247-2.249-11.748,2.241-11.758,2.251c-0.008-0.01-3.509-4.5-11.756-2.251c-8.256,2.251-22.518,11.009-35.278,10.259
					c0,0,24.77,13.256,47.035,1.249C970.92,280.539,995.685,267.283,995.685,267.283z"/>
				<path display="inline" fill="#2E2D2C" d="M957.923,284.105c-3.618,0.961-9.271,0.926-9.271,0.926s-5.651,0.035-9.27-0.926
					c0,0-2.24,9.444,9.27,20.955C960.162,293.549,957.923,284.105,957.923,284.105z"/>
				<path display="inline" fill="#2E2D2C" d="M948.652,309.938c-40.635-1.127-74.68-41.632-74.68-41.632
					c2.966,8.346,29.154,38.866,40.271,44.121c11.118,5.253,31.863,4.755,31.87,4.755c0,0,0.951,0.021,2.538,0.006
					c1.587,0.015,2.537-0.006,2.537-0.006c0.008,0,20.754,0.498,31.87-4.755c11.117-5.255,37.306-35.775,40.272-44.121
					C1023.332,268.306,989.285,308.811,948.652,309.938z"/>
			</g>
			<g id="bear-g" display="none">
				<path display="inline" fill="#2E2D2C" d="M965.496,252.198c-9.679-7.527-16.294,0-16.294,0s-6.613-7.527-16.298,0
					c-9.683,7.533-15.869,13.988-32.143,13.988c0,0,29.231,22.053,48.44,0c19.205,22.053,48.436,0,48.436,0
					C981.366,266.186,975.18,259.731,965.496,252.198z"/>
				<path display="inline" fill="#2E2D2C" d="M1015.905,267.878c-4.054,6.167-34.466,9.436-39.027,12.443
					c-4.485,2.961-13.157,10.983-28.762,11.241c-15.603-0.258-24.276-8.28-28.765-11.241c-4.563-3.007-34.972-6.276-39.027-12.443
					c-4.055-6.167-12.894-30.836-12.894-30.836c1.732,12.353,4.095,27.539,5.851,32.383c3.115,8.607,30.646,40.08,42.331,45.498
					c10.206,4.729,28.127,4.935,32.504,4.915c4.374,0.02,22.298-0.185,32.501-4.915c11.688-5.418,39.217-36.891,42.33-45.498
					c1.758-4.844,4.12-20.03,5.854-32.383C1028.801,237.042,1019.961,261.711,1015.905,267.878z"/>
			</g>
		</g>
	</g>
</g>
</svg>
